<?xml version="1.0" encoding="UTF-8" standalone="no"?>
<svg
   xmlns:dc="http://purl.org/dc/elements/1.1/"
   xmlns:cc="http://creativecommons.org/ns#"
   xmlns:rdf="http://www.w3.org/1999/02/22-rdf-syntax-ns#"
   xmlns:svg="http://www.w3.org/2000/svg"
   xmlns="http://www.w3.org/2000/svg"
   viewBox="0 0 839.01324 360.83676"
   height="360.83676"
   width="839.01324"
   xml:space="preserve"
   version="1.1"
   id="svg2"><metadata
     id="metadata8"><rdf:RDF><cc:Work
         rdf:about=""><dc:format>image/svg+xml</dc:format><dc:type
           rdf:resource="http://purl.org/dc/dcmitype/StillImage" /></cc:Work></rdf:RDF></metadata><defs
     id="defs6"><clipPath
       id="clipPath12"
       clipPathUnits="userSpaceOnUse"><path
         id="path14"
         d="m 0,0 1024,0 0,768 L 0,768 0,0 Z" /></clipPath><clipPath
       id="clipPath22"
       clipPathUnits="userSpaceOnUse"><path
         id="path24"
         d="m 0,0 1024,0 0,768 L 0,768 0,0 Z" /></clipPath><clipPath
       id="clipPath32"
       clipPathUnits="userSpaceOnUse"><path
         id="path34"
         d="m 265.9489,384.0115 165.8438,0 0,119.3438 -165.8438,0 0,-119.3438 z" /></clipPath><clipPath
       id="clipPath42"
       clipPathUnits="userSpaceOnUse"><path
         id="path44"
         d="m 264.9524,382.5624 167.8367,0 0,167.8367 -167.8367,0 0,-167.8367 z" /></clipPath><clipPath
       id="clipPath54"
       clipPathUnits="userSpaceOnUse"><path
         id="path56"
         d="m 0,0 1024,0 0,768 L 0,768 0,0 Z" /></clipPath><clipPath
       id="clipPath68"
       clipPathUnits="userSpaceOnUse"><path
         id="path70"
         d="m 592.9013,348.4695 165.8438,0 0,119.3438 -165.8438,0 0,-119.3438 z" /></clipPath><clipPath
       id="clipPath78"
       clipPathUnits="userSpaceOnUse"><path
         id="path80"
         d="m 591.9048,347.0204 167.8367,0 0,167.8367 -167.8367,0 0,-167.8367 z" /></clipPath><clipPath
       id="clipPath90"
       clipPathUnits="userSpaceOnUse"><path
         id="path92"
         d="m 0,0 1024,0 0,768 L 0,768 0,0 Z" /></clipPath></defs><g
     clip-path="url(#clipPath12)"
     transform="matrix(1.25,0,0,-1.25,-117.67565,753.083)"
     id="g10"><g
       id="g16" /><g
       id="g18"><g
         clip-path="url(#clipPath22)"
         id="g20"><path
           id="path26"
           style="fill:#ffffff;fill-opacity:1;fill-rule:nonzero;stroke:none"
           d="m 0,0 1024,0 0,768 L 0,768 0,0 Z" /></g></g><g
       id="g28"><g
         clip-path="url(#clipPath32)"
         id="g30"><path
           id="path36"
           style="fill:#00a2ff;fill-opacity:1;fill-rule:nonzero;stroke:none"
           d="m 266.9489,502.3552 0,-79.5937 c 0,-10.9376 0.003,-16.4097 1.8437,-22.2188 2.3138,-6.3569 7.3306,-11.3737 13.6875,-13.6875 5.8091,-1.841 11.292,-1.8437 22.0625,-1.8437 l 88.5313,0 c 10.9376,0 16.4097,0.003 22.2187,1.8437 6.357,2.3137 11.3425,7.3306 13.6563,13.6875 1.841,5.8091 1.8437,11.2607 1.8437,22.0313 l 0,79.7812 -163.8437,0 z" /></g></g><g
       id="g38"><g
         clip-path="url(#clipPath42)"
         id="g40"><g
           transform="matrix(1,0,0,-1,266.9524,548.3991)"
           id="g46"><path
             id="path48"
             style="fill:none;stroke:#000000;stroke-width:2;stroke-linecap:butt;stroke-linejoin:miter;stroke-miterlimit:4;stroke-dasharray:none;stroke-opacity:1"
             d="M 37.56772,0 126.269,0 c 10.7706,0 16.2394,0 22.0484,1.840986 6.357,2.313739 11.3646,7.32135 13.6783,13.678294 1.841,5.80906 1.841,11.27786 1.841,22.21547 l 0,88.53425 c 0,10.7706 0,16.2394 -1.841,22.0484 -2.3137,6.357 -7.3213,11.3646 -13.6783,13.6783 -5.809,1.841 -11.2778,1.841 -22.2154,1.841 l -88.53428,0 c -10.77058,0 -16.23938,0 -22.04844,-1.841 C 9.162336,159.682 4.154725,154.6744 1.840986,148.3174 0,142.5084 0,137.0396 0,126.102 L 0,37.56772 C 0,26.79714 0,21.32834 1.840986,15.51928 4.154725,9.162336 9.162336,4.154725 15.51928,1.840986 21.32834,0 26.79714,0 37.73475,0 l -0.16703,0 z" /></g></g></g><g
       id="g50"><g
         clip-path="url(#clipPath54)"
         id="g52"><path
           id="path58"
           style="fill:#00a2ff;fill-opacity:1;fill-rule:nonzero;stroke:none"
           d="m 215.1519,457.7867 0,-15.3286 49.6327,24.0226 -49.6327,24.0227 0,-15.3286 -114.2041,0 0,-17.3881 114.2041,0 z" /><path
           id="path60"
           style="fill:#00a2ff;fill-opacity:1;fill-rule:nonzero;stroke:none"
           d="m 543.2857,462.1268 0,-19.6687 49.6327,24.0226 -49.6327,24.0227 0,-19.6688 -114.2041,0 0,-8.7078 114.2041,0 z" /><path
           id="path62"
           style="fill:#00a2ff;fill-opacity:1;fill-rule:nonzero;stroke:none"
           d="m 454.0508,419.6607 12.8046,17.3889 -7.1739,0 c 9e-4,0.0948 0.004,0.1911 0.004,0.286 0,16.7728 -13.5977,30.3704 -30.3704,30.3704 -8e-4,0 -0.003,0 -0.004,0 l 0,-11.22 c 8e-4,0 0.003,0 0.004,0 10.5775,0 19.1542,-8.5728 19.1542,-19.1504 0,-0.0951 -0.006,-0.1913 -0.008,-0.286 l -7.2191,0 12.8083,-17.3889 z" /></g></g><g
       id="g64"><g
         clip-path="url(#clipPath68)"
         id="g66"><path
           id="path72"
           style="fill:#00a2ff;fill-opacity:1;fill-rule:nonzero;stroke:none"
           d="m 593.9013,466.8133 0,-79.5938 c 0,-10.9375 0.003,-16.4097 1.8437,-22.2187 2.3137,-6.357 7.3306,-11.3738 13.6875,-13.6875 5.8091,-1.841 11.2919,-1.8438 22.0625,-1.8438 l 88.5313,0 c 10.9376,1e-4 16.4097,0.003 22.2187,1.8438 6.357,2.3137 11.3425,7.3305 13.6563,13.6875 1.841,5.809 1.8437,11.2606 1.8437,22.0312 l 0,79.7813 -163.8437,0 z" /></g></g><g
       id="g74"><g
         clip-path="url(#clipPath78)"
         id="g76"><g
           transform="matrix(1,0,0,-1,593.9048,512.8571)"
           id="g82"><path
             id="path84"
             style="fill:none;stroke:#000000;stroke-width:2;stroke-linecap:butt;stroke-linejoin:miter;stroke-miterlimit:4;stroke-dasharray:none;stroke-opacity:1"
             d="M 37.56772,0 126.269,0 c 10.7706,0 16.2394,0 22.0484,1.840986 6.357,2.313739 11.3646,7.32135 13.6783,13.678294 1.841,5.80906 1.841,11.27786 1.841,22.21547 l 0,88.53425 c 0,10.7706 0,16.2394 -1.841,22.0484 -2.3137,6.357 -7.3213,11.3646 -13.6783,13.6783 -5.809,1.841 -11.2778,1.841 -22.2154,1.841 l -88.53428,0 c -10.77058,0 -16.23938,0 -22.04844,-1.841 C 9.162336,159.682 4.154725,154.6744 1.840986,148.3174 0,142.5084 0,137.0396 0,126.102 L 0,37.56772 C 0,26.79714 0,21.32834 1.840986,15.51928 4.154725,9.162336 9.162336,4.154725 15.51928,1.840986 21.32834,0 26.79714,0 37.73475,0 l -0.16703,0 z" /></g></g></g><g
       id="g86"><g
         clip-path="url(#clipPath90)"
         id="g88"><path
           id="path94"
           style="fill:#929292;fill-opacity:1;fill-rule:nonzero;stroke:none"
           d="m 441.6616,387.3005 c -2.1984,0 -3.9881,-1.7896 -3.9881,-3.9881 l 0,-2.8552 -10.867,0 c -2.0761,0 -3.7595,-1.6836 -3.7595,-3.7595 l 0,-5.4767 50.0726,0 0,5.4767 c 0,2.0759 -1.6836,3.7595 -3.7595,3.7595 l -10.867,0 0,2.8552 c 0,2.1985 -1.7897,3.9881 -3.9882,3.9881 l -12.8433,0 z m 0,-3.9119 12.8433,0 c 0.042,0 0.0762,-0.0342 0.0762,-0.0762 l 0,-2.8552 -12.9957,0 0,2.8552 c 0,0.042 0.0343,0.0762 0.0762,0.0762 z m -15.6121,-14.7789 2.4335,-42.579 c 0,-2.0759 1.6837,-3.7595 3.7595,-3.7595 l 31.6815,0 c 2.0761,0 3.7595,1.6836 3.7595,3.7595 l 2.4336,42.579 -44.0676,0 z m 10.552,-5.2836 c 0.8942,0.0417 1.6581,-0.6604 1.6969,-1.5597 l 1.3463,-31.0871 c 0.0389,-0.8992 -0.6605,-1.6631 -1.5597,-1.7019 -0.0239,-10e-4 -0.0472,0 -0.0711,0 -0.8675,0 -1.588,0.6845 -1.6257,1.5596 l -1.3463,31.0871 c -0.0391,0.899 0.6605,1.6631 1.5596,1.702 z m 11.4818,0 c 0.9,0 1.6308,-0.7308 1.6308,-1.6309 l 0,-31.087 c 0,-0.9 -0.7308,-1.6308 -1.6308,-1.6308 -0.9,0 -1.6308,0.7308 -1.6308,1.6308 l 0,31.087 c 0,0.9 0.7308,1.6309 1.6308,1.6309 z m 11.4817,0 c 0.8992,-0.0389 1.5986,-0.8028 1.5597,-1.702 l -1.3463,-31.0871 c -0.0377,-0.8751 -0.7581,-1.5596 -1.6257,-1.5596 -0.0238,0 -0.0471,-10e-4 -0.0712,0 -0.8991,0.0388 -1.5985,0.8027 -1.5596,1.7019 l 1.3463,31.0871 c 0.0388,0.8992 0.8009,1.6013 1.6968,1.5597 z" /><path
           id="path96"
           style="fill:#00a2ff;fill-opacity:1;fill-rule:nonzero;stroke:none"
           d="m 348.8708,595.9761 c -10.3716,0 -18.7722,-8.4005 -18.7722,-18.7721 0,-10.3716 8.4006,-18.7721 18.7722,-18.7721 10.3716,0 18.7721,8.4005 18.7721,18.7721 0,10.3716 -8.4099,18.7721 -18.7721,18.7721 z m -0.1496,-2.3289 0.2991,0 c 0.1878,0 0.3374,-0.1496 0.3374,-0.3373 l 0,-2.722 c 0,-0.1877 -0.1496,-0.3373 -0.3374,-0.3373 l -0.2991,0 c -0.1878,0 -0.3373,0.1496 -0.3373,0.3373 l 0,2.722 c 0,0.1877 0.1495,0.3373 0.3373,0.3373 z m -7.8139,-2.0884 c 0.1298,0.0163 0.261,-0.0446 0.3314,-0.1642 l 1.361,-2.3554 c 0.0939,-0.1595 0.0393,-0.3666 -0.1203,-0.4605 l -0.2639,-0.1495 c -0.1596,-0.0939 -0.3667,-0.0364 -0.4606,0.1231 l -1.3609,2.3554 c -0.0939,0.1595 -0.0364,0.376 0.1232,0.4605 l 0.2639,0.1496 c 0.0399,0.0234 0.0829,0.0356 0.1262,0.041 z m 15.9269,0 c 0.0433,-0.005 0.0863,-0.0176 0.1262,-0.041 l 0.264,-0.1496 c 0.1595,-0.0939 0.217,-0.301 0.1231,-0.4605 l -1.3609,-2.3554 c -0.0939,-0.1595 -0.301,-0.217 -0.4605,-0.1231 l -0.264,0.1495 c -0.1596,0.0939 -0.2141,0.301 -0.1203,0.4605 l 1.361,2.3554 c 0.0704,0.1196 0.2016,0.1805 0.3314,0.1642 z m 2.7279,-4.1064 0.5719,-0.657 -9.5913,-9.3479 0.7978,-0.4224 -1.0794,-1.8684 -1.2584,0.789 -1.0617,-1.0325 -1.4461,1.5869 0.6952,0.5807 -6.3826,3.9891 0.6864,1.1821 7.2654,-3.8571 10.8028,9.0575 z m -24.5299,-1.7305 c 0.0432,-0.005 0.0862,-0.0206 0.1261,-0.044 l 2.3553,-1.361 c 0.1596,-0.0939 0.2171,-0.298 0.1232,-0.4576 l -0.1525,-0.264 c -0.0939,-0.1595 -0.298,-0.217 -0.4576,-0.1232 l -2.3582,1.361 c -0.1596,0.0939 -0.2141,0.301 -0.1203,0.4605 l 0.1496,0.264 c 0.0704,0.1197 0.2046,0.1805 0.3344,0.1643 z m 27.6683,0 c 0.1298,0.0162 0.264,-0.0446 0.3344,-0.1643 l 0.1496,-0.264 c 0.0939,-0.1595 0.0364,-0.3666 -0.1232,-0.4605 l -2.3553,-1.361 c -0.1596,-0.0938 -0.3666,-0.0363 -0.4605,0.1232 l -0.1496,0.264 c -0.0939,0.1596 -0.0364,0.3637 0.1232,0.4576 l 2.3553,1.361 c 0.0399,0.0234 0.0829,0.0385 0.1261,0.044 z m -13.8297,-7.8902 c -0.161,0 -0.3231,-0.062 -0.4459,-0.1848 -0.2456,-0.2456 -0.2456,-0.6431 0,-0.8887 0.2456,-0.2456 0.6461,-0.2456 0.8917,0 0.2456,0.2456 0.2456,0.6431 0,0.8887 -0.1228,0.1228 -0.2849,0.1848 -0.4458,0.1848 z m -16.1147,-0.1408 2.7219,0 c 0.1877,0 0.3373,-0.1496 0.3373,-0.3373 l 0,-0.2992 c 0,-0.1877 -0.1496,-0.3402 -0.3373,-0.3402 l -2.7219,0 c -0.1784,0 -0.3403,0.1525 -0.3403,0.3402 l 0,0.2992 c 0,0.1877 0.1525,0.3373 0.3403,0.3373 z m 29.4986,0 2.722,0 c 0.1877,0 0.3373,-0.1496 0.3373,-0.3373 l 0,-0.2992 c 0,-0.1877 -0.1496,-0.3402 -0.3373,-0.3402 l -2.722,0 c -0.1877,0 -0.3373,0.1525 -0.3373,0.3402 l 0,0.2992 c 0,0.1877 0.1496,0.3373 0.3373,0.3373 z m -25.1019,-6.714 c 0.1298,0.0163 0.2611,-0.0445 0.3315,-0.1642 l 0.1525,-0.264 c 0.0939,-0.1596 0.0364,-0.3666 -0.1232,-0.4605 l -2.3553,-1.361 c -0.1596,-0.0938 -0.3666,-0.0363 -0.4605,0.1232 l -0.1496,0.2611 c -0.0938,0.1595 -0.0393,0.3666 0.1203,0.4605 l 2.3582,1.3609 c 0.0399,0.0235 0.0829,0.0386 0.1261,0.044 z m 23.4271,0 c 0.0432,-0.005 0.0862,-0.0205 0.1261,-0.044 l 2.3553,-1.3609 c 0.1596,-0.0939 0.2171,-0.301 0.1232,-0.4605 l -0.1496,-0.2611 c -0.0938,-0.1596 -0.3009,-0.217 -0.4605,-0.1232 l -2.3553,1.361 c -0.1596,0.0939 -0.2171,0.3009 -0.1232,0.4605 l 0.1496,0.264 c 0.0704,0.1197 0.2046,0.1805 0.3344,0.1642 z m -18.4994,-4.9658 c 0.0433,-0.005 0.0863,-0.0205 0.1262,-0.044 l 0.2639,-0.1496 c 0.1596,-0.0844 0.2142,-0.2915 0.1203,-0.4605 l -1.361,-2.3553 c -0.0938,-0.1595 -0.3009,-0.2141 -0.4605,-0.1202 l -0.261,0.1496 c -0.1596,0.0938 -0.2171,0.3009 -0.1232,0.4605 l 1.3609,2.3553 c 0.0704,0.1196 0.2046,0.1805 0.3344,0.1642 z m 13.5629,0 c 0.1298,0.0163 0.261,-0.0445 0.3314,-0.1642 l 1.361,-2.3553 c 0.1033,-0.1596 0.0487,-0.3667 -0.1202,-0.4605 l -0.264,-0.1496 c -0.1596,-0.0939 -0.3667,-0.0393 -0.4605,0.1202 l -1.361,2.3553 c -0.0939,0.1596 -0.0364,0.3667 0.1232,0.4605 l 0.264,0.1496 c 0.0399,0.0235 0.0828,0.0386 0.1261,0.044 z m -6.9222,-1.8537 0.2991,0 c 0.1878,0 0.3374,-0.1496 0.3374,-0.3373 l 0,-2.722 c 0,-0.1877 -0.1496,-0.3402 -0.3374,-0.3402 l -0.2991,0 c -0.1878,0 -0.3373,0.1525 -0.3373,0.3402 l 0,2.722 c 0,0.1877 0.1495,0.3373 0.3373,0.3373 z" /></g></g></g></svg>