<?xml version="1.0" encoding="UTF-8" standalone="no"?>
<svg
   xmlns:dc="http://purl.org/dc/elements/1.1/"
   xmlns:cc="http://creativecommons.org/ns#"
   xmlns:rdf="http://www.w3.org/1999/02/22-rdf-syntax-ns#"
   xmlns:svg="http://www.w3.org/2000/svg"
   xmlns="http://www.w3.org/2000/svg"
   viewBox="0 0 307.5 77.5"
   height="77.5"
   width="307.5"
   xml:space="preserve"
   version="1.1"
   id="svg2"><metadata
     id="metadata8"><rdf:RDF><cc:Work
         rdf:about=""><dc:format>image/svg+xml</dc:format><dc:type
           rdf:resource="http://purl.org/dc/dcmitype/StillImage" /></cc:Work></rdf:RDF></metadata><defs
     id="defs6"><clipPath
       id="clipPath18"
       clipPathUnits="userSpaceOnUse"><path
         id="path20"
         d="M 0,0 246,0 246,62 0,62 0,0 Z" /></clipPath></defs><g
     transform="matrix(1.25,0,0,-1.25,0,77.5)"
     id="g10"><g
       id="g12" /><g
       id="g14"><g
         clip-path="url(#clipPath18)"
         id="g16"><path
           id="path22"
           style="fill:#4a4852;fill-opacity:1;fill-rule:nonzero;stroke:none"
           d="m 88.743,26.237 -4.857,15.677 -2.31,0 6.048,-19.301 2.235,0 6.047,19.301 -2.309,0 -4.854,-15.677" /><path
           id="path24"
           style="fill:#4a4852;fill-opacity:1;fill-rule:nonzero;stroke:none"
           d="m 102.516,36.399 2.22,0 0,-13.786 -2.22,0 0,13.786 z" /><path
           id="path26"
           style="fill:#4a4852;fill-opacity:1;fill-rule:nonzero;stroke:none"
           d="m 102.516,41.914 2.22,0 0,-2.734 -2.22,0 0,2.734 z" /><path
           id="path28"
           style="fill:#4a4852;fill-opacity:1;fill-rule:nonzero;stroke:none"
           d="m 116.851,26.098 -3.204,10.301 -2.317,0 4.414,-13.786 2.228,0 4.403,13.786 -2.321,0 -3.203,-10.301" /><path
           id="path30"
           style="fill:#4a4852;fill-opacity:1;fill-rule:nonzero;stroke:none"
           d="m 128.986,41.914 2.198,0 0,-2.734 -2.198,0 0,2.734 z" /><path
           id="path32"
           style="fill:#4a4852;fill-opacity:1;fill-rule:nonzero;stroke:none"
           d="m 128.986,36.399 2.198,0 0,-13.786 -2.198,0 0,13.786 z" /><path
           id="path34"
           style="fill:#4a4852;fill-opacity:1;fill-rule:nonzero;stroke:none"
           d="m 146.641,24.549 -2.694,0 c -1.713,0 -3.109,1.388 -3.109,3.15 l 0,5.246 c 0,0.853 0.678,1.521 1.557,1.521 l 4.246,0 0,-9.917 z m 0,11.85 -4.246,0 c -2.102,0 -3.762,-1.634 -3.762,-3.695 l 0,-4.747 c 0,-2.98 2.374,-5.344 5.314,-5.344 l 4.873,0 0,19.301 -2.179,0 0,-5.515" /><path
           id="path36"
           style="fill:#4a4852;fill-opacity:1;fill-rule:nonzero;stroke:none"
           d="m 156.283,36.789 0,-7.168 c 0,-3.844 3.088,-7.008 6.953,-7.008 l 4.594,0 0,1.936 -4.594,0 c -2.584,0 -4.744,2.189 -4.744,4.788 l 0,7.739 c 0,1.554 1.323,2.916 2.925,2.916 l 6.413,0 0,1.922 -6.413,0 c -2.863,0 -5.134,-2.275 -5.134,-5.125" /><path
           id="path38"
           style="fill:#4a4852;fill-opacity:1;fill-rule:nonzero;stroke:none"
           d="m 181.914,26.604 c 0,-1.135 -0.939,-2.055 -2.072,-2.055 l -1.933,0 c -1.138,0 -2.079,0.92 -2.079,2.055 l 0,6.341 c 0,0.853 0.689,1.521 1.534,1.521 l 3.024,0 c 0.886,0 1.526,-0.668 1.526,-1.521 l 0,-6.341 z m -1.526,9.795 -3.024,0 c -2.057,0 -3.739,-1.634 -3.739,-3.695 l 0,-5.806 c 0,-2.397 1.885,-4.285 4.284,-4.285 l 1.933,0 c 2.392,0 4.291,1.888 4.291,4.285 l 0,5.806 c 0,2.061 -1.69,3.695 -3.745,3.695" /><path
           id="path40"
           style="fill:#4a4852;fill-opacity:1;fill-rule:nonzero;stroke:none"
           d="m 193.767,35.187 -0.804,1.212 -1.439,0 0,-13.786 2.243,0 0,8.826 c 0,1.666 1.329,3.027 3.041,3.027 l 3.293,0 0,1.933 -3.293,0 c -1.282,0 -2.243,-0.411 -3.041,-1.212" /><path
           id="path42"
           style="fill:#4a4852;fill-opacity:1;fill-rule:nonzero;stroke:none"
           d="m 209.174,41.914 -2.18,0 0,-15.6 c 0,-2.057 1.665,-3.701 3.871,-3.701 l 1.638,0 0,1.936 -1.638,0 c -0.925,0 -1.691,0.798 -1.691,1.765 l 0,8.152 3.329,0 0,1.933 -3.329,0 0,5.515" /><path
           id="path44"
           style="fill:#4a4852;fill-opacity:1;fill-rule:nonzero;stroke:none"
           d="m 220.783,32.704 c 0,0.961 0.704,1.762 1.65,1.762 l 2.463,0 c 0.902,0 1.69,-0.801 1.69,-1.762 0,-0.973 -0.6,-1.601 -1.305,-1.769 l -4.498,-1.091 0,2.86 z M 225.787,29 c 1.612,0.432 2.98,1.935 2.98,3.704 0,2.061 -1.688,3.695 -3.871,3.695 l -2.463,0 c -2.159,0 -3.844,-1.634 -3.844,-3.695 l 0,-4.747 c 0,-2.98 2.317,-5.344 5.287,-5.344 l 4.322,0 0,1.936 -4.322,0 c -1.76,0 -3.093,1.388 -3.093,3.15 l 0,0.136 5.004,1.165" /><path
           id="path46"
           style="fill:#4a4852;fill-opacity:1;fill-rule:nonzero;stroke:none"
           d="m 245.576,36.399 -2.481,0 c -0.928,-1.532 -1.922,-3.214 -2.883,-4.838 l -2.883,4.838 -2.514,0 4.116,-6.893 -4.116,-6.893 2.514,0 c 0.941,1.563 1.922,3.239 2.883,4.836 l 2.883,-4.836 2.481,0 -4.114,6.893 4.114,6.893" /><path
           id="path48"
           style="fill:#ffffff;fill-opacity:1;fill-rule:nonzero;stroke:none"
           d="M 35.798,44.625 25.766,62 0,62 35.798,0 71.59,62 45.828,62 35.798,44.625" /><path
           id="path50"
           style="fill:#4ac0d2;fill-opacity:1;fill-rule:nonzero;stroke:none"
           d="M 33.879,44.043 24.653,60 5.537,60 33.879,44.043" /><path
           id="path52"
           style="fill:#4ac0d2;fill-opacity:1;fill-rule:nonzero;stroke:none"
           d="M 32.842,42.333 4.43,58.328 l 9.235,-15.995 19.177,0" /><path
           id="path54"
           style="fill:#484852;fill-opacity:1;fill-rule:nonzero;stroke:none"
           d="M 34.879,38.855 25.27,22.234 34.879,5.59 l 0,33.265" /><path
           id="path56"
           style="fill:#378fad;fill-opacity:1;fill-rule:nonzero;stroke:none"
           d="m 33.423,40.333 -18.603,0 9.295,-16.099 9.308,16.099" /><path
           id="path58"
           style="fill:#4ac0d2;fill-opacity:1;fill-rule:nonzero;stroke:none"
           d="M 37.746,44.043 46.972,60 66.089,60 37.746,44.043" /><path
           id="path60"
           style="fill:#4ac0d2;fill-opacity:1;fill-rule:nonzero;stroke:none"
           d="m 38.784,42.333 28.411,15.995 -9.235,-15.995 -19.176,0" /><path
           id="path62"
           style="fill:#484852;fill-opacity:1;fill-rule:nonzero;stroke:none"
           d="m 36.746,38.855 9.61,-16.621 -9.61,-16.644 0,33.265" /><path
           id="path64"
           style="fill:#378fad;fill-opacity:1;fill-rule:nonzero;stroke:none"
           d="m 38.203,40.333 18.603,0 -9.295,-16.099 -9.308,16.099" /></g></g></g></svg>