<?xml version="1.0" encoding="UTF-8" standalone="no"?>
<svg
   xmlns:dc="http://purl.org/dc/elements/1.1/"
   xmlns:cc="http://creativecommons.org/ns#"
   xmlns:rdf="http://www.w3.org/1999/02/22-rdf-syntax-ns#"
   xmlns:svg="http://www.w3.org/2000/svg"
   xmlns="http://www.w3.org/2000/svg"
   viewBox="0 0 732.78302 372.41266"
   height="372.41266"
   width="732.78302"
   xml:space="preserve"
   version="1.1"
   id="svg2"><metadata
     id="metadata8"><rdf:RDF><cc:Work
         rdf:about=""><dc:format>image/svg+xml</dc:format><dc:type
           rdf:resource="http://purl.org/dc/dcmitype/StillImage" /></cc:Work></rdf:RDF></metadata><defs
     id="defs6"><clipPath
       id="clipPath12"
       clipPathUnits="userSpaceOnUse"><path
         id="path14"
         d="M 0,0 612,0 612,360 0,360 0,0 Z" /></clipPath><clipPath
       id="clipPath22"
       clipPathUnits="userSpaceOnUse"><path
         id="path24"
         d="M 0,0 612,0 612,360 0,360 0,0 Z" /></clipPath><clipPath
       id="clipPath32"
       clipPathUnits="userSpaceOnUse"><path
         id="path34"
         d="m 59.04,73.44 522.72,0 0,227.52 -522.72,0 0,-227.52 z" /></clipPath><clipPath
       id="clipPath104"
       clipPathUnits="userSpaceOnUse"><path
         id="path106"
         d="M 0,0 612,0 612,360 0,360 0,0 Z" /></clipPath></defs><g
     clip-path="url(#clipPath12)"
     transform="matrix(1.25,0,0,-1.25,0,391.077)"
     id="g10"><g
       id="g16" /><g
       id="g18"><g
         clip-path="url(#clipPath22)"
         id="g20"><path
           id="path26"
           style="fill:#ffffff;fill-opacity:1;fill-rule:nonzero;stroke:none"
           d="M 0,0 612,0 612,360 0,360 0,0 Z" /></g></g><g
       id="g28"><g
         clip-path="url(#clipPath32)"
         id="g30"><path
           id="path36"
           style="fill:none;stroke:#000000;stroke-width:0.75;stroke-linecap:round;stroke-linejoin:round;stroke-miterlimit:10;stroke-dasharray:none;stroke-opacity:1"
           d="m 106.52,137.01 c 0,1.48 1.21,2.7 2.7,2.7 1.48,0 2.7,-1.22 2.7,-2.7 0,-1.49 -1.22,-2.7 -2.7,-2.7 -1.49,0 -2.7,1.21 -2.7,2.7" /><path
           id="path38"
           style="fill:none;stroke:#000000;stroke-width:0.75;stroke-linecap:round;stroke-linejoin:round;stroke-miterlimit:10;stroke-dasharray:none;stroke-opacity:1"
           d="m 136.33,137.93 c 0,1.48 1.21,2.7 2.7,2.7 1.48,0 2.7,-1.22 2.7,-2.7 0,-1.49 -1.22,-2.7 -2.7,-2.7 -1.49,0 -2.7,1.21 -2.7,2.7" /><path
           id="path40"
           style="fill:none;stroke:#000000;stroke-width:0.75;stroke-linecap:round;stroke-linejoin:round;stroke-miterlimit:10;stroke-dasharray:none;stroke-opacity:1"
           d="m 162.43,140.65 c 0,1.48 1.22,2.7 2.7,2.7 1.49,0 2.7,-1.22 2.7,-2.7 0,-1.49 -1.21,-2.7 -2.7,-2.7 -1.48,0 -2.7,1.21 -2.7,2.7" /><path
           id="path42"
           style="fill:none;stroke:#000000;stroke-width:0.75;stroke-linecap:round;stroke-linejoin:round;stroke-miterlimit:10;stroke-dasharray:none;stroke-opacity:1"
           d="m 190.2,141.23 c 0,1.49 1.22,2.7 2.7,2.7 1.49,0 2.7,-1.21 2.7,-2.7 0,-1.48 -1.21,-2.7 -2.7,-2.7 -1.48,0 -2.7,1.22 -2.7,2.7" /><path
           id="path44"
           style="fill:none;stroke:#000000;stroke-width:0.75;stroke-linecap:round;stroke-linejoin:round;stroke-miterlimit:10;stroke-dasharray:none;stroke-opacity:1"
           d="m 214.95,142.89 c 0,1.48 1.21,2.7 2.7,2.7 1.48,0 2.7,-1.22 2.7,-2.7 0,-1.49 -1.22,-2.7 -2.7,-2.7 -1.49,0 -2.7,1.21 -2.7,2.7" /><path
           id="path46"
           style="fill:none;stroke:#000000;stroke-width:0.75;stroke-linecap:round;stroke-linejoin:round;stroke-miterlimit:10;stroke-dasharray:none;stroke-opacity:1"
           d="m 241.24,143.46 c 0,1.48 1.22,2.7 2.7,2.7 1.49,0 2.7,-1.22 2.7,-2.7 0,-1.49 -1.21,-2.7 -2.7,-2.7 -1.48,0 -2.7,1.21 -2.7,2.7" /><path
           id="path48"
           style="fill:none;stroke:#000000;stroke-width:0.75;stroke-linecap:round;stroke-linejoin:round;stroke-miterlimit:10;stroke-dasharray:none;stroke-opacity:1"
           d="m 267.09,144.02 c 0,1.49 1.21,2.7 2.7,2.7 1.48,0 2.7,-1.21 2.7,-2.7 0,-1.48 -1.22,-2.7 -2.7,-2.7 -1.49,0 -2.7,1.22 -2.7,2.7" /><path
           id="path50"
           style="fill:none;stroke:#000000;stroke-width:0.75;stroke-linecap:round;stroke-linejoin:round;stroke-miterlimit:10;stroke-dasharray:none;stroke-opacity:1"
           d="m 286.44,146.38 c 0,1.48 1.21,2.7 2.7,2.7 1.48,0 2.7,-1.22 2.7,-2.7 0,-1.49 -1.22,-2.7 -2.7,-2.7 -1.49,0 -2.7,1.21 -2.7,2.7" /><path
           id="path52"
           style="fill:none;stroke:#000000;stroke-width:0.75;stroke-linecap:round;stroke-linejoin:round;stroke-miterlimit:10;stroke-dasharray:none;stroke-opacity:1"
           d="m 308.66,147.52 c 0,1.48 1.21,2.7 2.7,2.7 1.48,0 2.7,-1.22 2.7,-2.7 0,-1.49 -1.22,-2.7 -2.7,-2.7 -1.49,0 -2.7,1.21 -2.7,2.7" /><path
           id="path54"
           style="fill:none;stroke:#000000;stroke-width:0.75;stroke-linecap:round;stroke-linejoin:round;stroke-miterlimit:10;stroke-dasharray:none;stroke-opacity:1"
           d="m 329.56,148.81 c 0,1.48 1.22,2.7 2.7,2.7 1.49,0 2.7,-1.22 2.7,-2.7 0,-1.49 -1.21,-2.7 -2.7,-2.7 -1.48,0 -2.7,1.21 -2.7,2.7" /><path
           id="path56"
           style="fill:none;stroke:#000000;stroke-width:0.75;stroke-linecap:round;stroke-linejoin:round;stroke-miterlimit:10;stroke-dasharray:none;stroke-opacity:1"
           d="m 342.83,151.85 c 0,1.48 1.21,2.7 2.7,2.7 1.48,0 2.7,-1.22 2.7,-2.7 0,-1.49 -1.22,-2.7 -2.7,-2.7 -1.49,0 -2.7,1.21 -2.7,2.7" /><path
           id="path58"
           style="fill:none;stroke:#000000;stroke-width:0.75;stroke-linecap:round;stroke-linejoin:round;stroke-miterlimit:10;stroke-dasharray:none;stroke-opacity:1"
           d="m 354.7,154.96 c 0,1.48 1.22,2.7 2.7,2.7 1.49,0 2.7,-1.22 2.7,-2.7 0,-1.49 -1.21,-2.7 -2.7,-2.7 -1.48,0 -2.7,1.21 -2.7,2.7" /><path
           id="path60"
           style="fill:none;stroke:#000000;stroke-width:0.75;stroke-linecap:round;stroke-linejoin:round;stroke-miterlimit:10;stroke-dasharray:none;stroke-opacity:1"
           d="m 367.64,157.54 c 0,1.48 1.22,2.7 2.7,2.7 1.49,0 2.7,-1.22 2.7,-2.7 0,-1.49 -1.21,-2.7 -2.7,-2.7 -1.48,0 -2.7,1.21 -2.7,2.7" /><path
           id="path62"
           style="fill:none;stroke:#000000;stroke-width:0.75;stroke-linecap:round;stroke-linejoin:round;stroke-miterlimit:10;stroke-dasharray:none;stroke-opacity:1"
           d="m 379.86,160.09 c 0,1.48 1.22,2.7 2.7,2.7 1.49,0 2.7,-1.22 2.7,-2.7 0,-1.49 -1.21,-2.7 -2.7,-2.7 -1.48,0 -2.7,1.21 -2.7,2.7" /><path
           id="path64"
           style="fill:none;stroke:#000000;stroke-width:0.75;stroke-linecap:round;stroke-linejoin:round;stroke-miterlimit:10;stroke-dasharray:none;stroke-opacity:1"
           d="m 386.92,163.77 c 0,1.49 1.22,2.7 2.7,2.7 1.49,0 2.7,-1.21 2.7,-2.7 0,-1.48 -1.21,-2.7 -2.7,-2.7 -1.48,0 -2.7,1.22 -2.7,2.7" /><path
           id="path66"
           style="fill:none;stroke:#000000;stroke-width:0.75;stroke-linecap:round;stroke-linejoin:round;stroke-miterlimit:10;stroke-dasharray:none;stroke-opacity:1"
           d="m 395.05,167.01 c 0,1.48 1.22,2.7 2.7,2.7 1.49,0 2.7,-1.22 2.7,-2.7 0,-1.49 -1.21,-2.7 -2.7,-2.7 -1.48,0 -2.7,1.21 -2.7,2.7" /><path
           id="path68"
           style="fill:none;stroke:#000000;stroke-width:0.75;stroke-linecap:round;stroke-linejoin:round;stroke-miterlimit:10;stroke-dasharray:none;stroke-opacity:1"
           d="m 401.52,170.53 c 0,1.49 1.21,2.7 2.7,2.7 1.48,0 2.7,-1.21 2.7,-2.7 0,-1.48 -1.22,-2.7 -2.7,-2.7 -1.49,0 -2.7,1.22 -2.7,2.7" /><path
           id="path70"
           style="fill:none;stroke:#000000;stroke-width:0.75;stroke-linecap:round;stroke-linejoin:round;stroke-miterlimit:10;stroke-dasharray:none;stroke-opacity:1"
           d="m 406.13,174.44 c 0,1.49 1.21,2.7 2.7,2.7 1.48,0 2.7,-1.21 2.7,-2.7 0,-1.48 -1.22,-2.7 -2.7,-2.7 -1.49,0 -2.7,1.22 -2.7,2.7" /><path
           id="path72"
           style="fill:none;stroke:#000000;stroke-width:0.75;stroke-linecap:round;stroke-linejoin:round;stroke-miterlimit:10;stroke-dasharray:none;stroke-opacity:1"
           d="m 415.55,176.88 c 0,1.48 1.21,2.7 2.7,2.7 1.48,0 2.7,-1.22 2.7,-2.7 0,-1.49 -1.22,-2.7 -2.7,-2.7 -1.49,0 -2.7,1.21 -2.7,2.7" /><path
           id="path74"
           style="fill:none;stroke:#000000;stroke-width:0.75;stroke-linecap:round;stroke-linejoin:round;stroke-miterlimit:10;stroke-dasharray:none;stroke-opacity:1"
           d="m 424.13,179.41 c 0,1.49 1.22,2.7 2.7,2.7 1.49,0 2.7,-1.21 2.7,-2.7 0,-1.48 -1.21,-2.7 -2.7,-2.7 -1.48,0 -2.7,1.22 -2.7,2.7" /><path
           id="path76"
           style="fill:none;stroke:#000000;stroke-width:0.75;stroke-linecap:round;stroke-linejoin:round;stroke-miterlimit:10;stroke-dasharray:none;stroke-opacity:1"
           d="m 435.52,181.05 c 0,1.48 1.21,2.7 2.7,2.7 1.48,0 2.7,-1.22 2.7,-2.7 0,-1.49 -1.22,-2.7 -2.7,-2.7 -1.49,0 -2.7,1.21 -2.7,2.7" /><path
           id="path78"
           style="fill:none;stroke:#000000;stroke-width:0.75;stroke-linecap:round;stroke-linejoin:round;stroke-miterlimit:10;stroke-dasharray:none;stroke-opacity:1"
           d="m 447.37,182.46 c 0,1.48 1.21,2.7 2.7,2.7 1.48,0 2.7,-1.22 2.7,-2.7 0,-1.49 -1.22,-2.7 -2.7,-2.7 -1.49,0 -2.7,1.21 -2.7,2.7" /><path
           id="path80"
           style="fill:none;stroke:#000000;stroke-width:0.75;stroke-linecap:round;stroke-linejoin:round;stroke-miterlimit:10;stroke-dasharray:none;stroke-opacity:1"
           d="m 456.64,184.47 c 0,1.48 1.22,2.7 2.7,2.7 1.49,0 2.7,-1.22 2.7,-2.7 0,-1.49 -1.21,-2.7 -2.7,-2.7 -1.48,0 -2.7,1.21 -2.7,2.7" /><path
           id="path82"
           style="fill:none;stroke:#000000;stroke-width:0.75;stroke-linecap:round;stroke-linejoin:round;stroke-miterlimit:10;stroke-dasharray:none;stroke-opacity:1"
           d="m 465.78,186.42 c 0,1.49 1.22,2.7 2.7,2.7 1.49,0 2.7,-1.21 2.7,-2.7 0,-1.48 -1.21,-2.7 -2.7,-2.7 -1.48,0 -2.7,1.22 -2.7,2.7" /><path
           id="path84"
           style="fill:none;stroke:#000000;stroke-width:0.75;stroke-linecap:round;stroke-linejoin:round;stroke-miterlimit:10;stroke-dasharray:none;stroke-opacity:1"
           d="m 465.33,190.9 c 0,1.49 1.22,2.7 2.7,2.7 1.49,0 2.7,-1.21 2.7,-2.7 0,-1.48 -1.21,-2.7 -2.7,-2.7 -1.48,0 -2.7,1.22 -2.7,2.7" /><path
           id="path86"
           style="fill:none;stroke:#000000;stroke-width:0.75;stroke-linecap:round;stroke-linejoin:round;stroke-miterlimit:10;stroke-dasharray:none;stroke-opacity:1"
           d="m 468.62,194.32 c 0,1.48 1.22,2.7 2.7,2.7 1.49,0 2.7,-1.22 2.7,-2.7 0,-1.49 -1.21,-2.7 -2.7,-2.7 -1.48,0 -2.7,1.21 -2.7,2.7" /><path
           id="path88"
           style="fill:none;stroke:#000000;stroke-width:0.75;stroke-linecap:round;stroke-linejoin:round;stroke-miterlimit:10;stroke-dasharray:none;stroke-opacity:1"
           d="m 469.72,198.32 c 0,1.48 1.22,2.7 2.7,2.7 1.49,0 2.7,-1.22 2.7,-2.7 0,-1.49 -1.21,-2.7 -2.7,-2.7 -1.48,0 -2.7,1.21 -2.7,2.7" /><path
           id="path90"
           style="fill:none;stroke:#000000;stroke-width:0.75;stroke-linecap:round;stroke-linejoin:round;stroke-miterlimit:10;stroke-dasharray:none;stroke-opacity:1"
           d="m 468.03,203.15 c 0,1.48 1.21,2.7 2.7,2.7 1.48,0 2.7,-1.22 2.7,-2.7 0,-1.49 -1.22,-2.7 -2.7,-2.7 -1.49,0 -2.7,1.21 -2.7,2.7" /><path
           id="path92"
           style="fill:none;stroke:#000000;stroke-width:0.75;stroke-linecap:round;stroke-linejoin:round;stroke-miterlimit:10;stroke-dasharray:none;stroke-opacity:1"
           d="m 467.91,207.52 c 0,1.48 1.22,2.7 2.7,2.7 1.49,0 2.7,-1.22 2.7,-2.7 0,-1.49 -1.21,-2.7 -2.7,-2.7 -1.48,0 -2.7,1.21 -2.7,2.7" /><path
           id="path94"
           style="fill:none;stroke:#000000;stroke-width:0.75;stroke-linecap:round;stroke-linejoin:round;stroke-miterlimit:10;stroke-dasharray:none;stroke-opacity:1"
           d="m 466.71,212.25 c 0,1.49 1.21,2.7 2.7,2.7 1.48,0 2.7,-1.21 2.7,-2.7 0,-1.48 -1.22,-2.7 -2.7,-2.7 -1.49,0 -2.7,1.22 -2.7,2.7" /><path
           id="path96"
           style="fill:none;stroke:#000000;stroke-width:0.75;stroke-linecap:round;stroke-linejoin:round;stroke-miterlimit:10;stroke-dasharray:none;stroke-opacity:1"
           d="m 467.43,216.35 c 0,1.48 1.22,2.7 2.7,2.7 1.49,0 2.7,-1.22 2.7,-2.7 0,-1.49 -1.21,-2.7 -2.7,-2.7 -1.48,0 -2.7,1.21 -2.7,2.7" /><path
           id="path98"
           style="fill:none;stroke:#000000;stroke-width:0.75;stroke-linecap:round;stroke-linejoin:round;stroke-miterlimit:10;stroke-dasharray:none;stroke-opacity:1"
           d="m 465.3,221.45 c 0,1.48 1.22,2.7 2.7,2.7 1.49,0 2.7,-1.22 2.7,-2.7 0,-1.49 -1.21,-2.7 -2.7,-2.7 -1.48,0 -2.7,1.21 -2.7,2.7" /></g></g><g
       id="g100"><g
         clip-path="url(#clipPath104)"
         id="g102"><path
           id="path108"
           style="fill:none;stroke:#000000;stroke-width:0.75;stroke-linecap:round;stroke-linejoin:round;stroke-miterlimit:10;stroke-dasharray:none;stroke-opacity:1"
           d="m 78.4,73.44 484,0" /><path
           id="path110"
           style="fill:none;stroke:#000000;stroke-width:0.75;stroke-linecap:round;stroke-linejoin:round;stroke-miterlimit:10;stroke-dasharray:none;stroke-opacity:1"
           d="m 78.4,73.44 0,-7.2" /><path
           id="path112"
           style="fill:none;stroke:#000000;stroke-width:0.75;stroke-linecap:round;stroke-linejoin:round;stroke-miterlimit:10;stroke-dasharray:none;stroke-opacity:1"
           d="m 239.73,73.44 0,-7.2" /><path
           id="path114"
           style="fill:none;stroke:#000000;stroke-width:0.75;stroke-linecap:round;stroke-linejoin:round;stroke-miterlimit:10;stroke-dasharray:none;stroke-opacity:1"
           d="m 401.07,73.44 0,-7.2" /><path
           id="path116"
           style="fill:none;stroke:#000000;stroke-width:0.75;stroke-linecap:round;stroke-linejoin:round;stroke-miterlimit:10;stroke-dasharray:none;stroke-opacity:1"
           d="m 562.4,73.44 0,-7.2" /><text
           id="text118"
           style="font-variant:normal;font-weight:normal;font-size:16px;font-family:Helvetica;-inkscape-font-specification:Helvetica;writing-mode:lr-tb;fill:#000000;fill-opacity:1;fill-rule:nonzero;stroke:none"
           transform="matrix(1,0,0,-1,73.95,47.52)"><tspan
             id="tspan120"
             y="0"
             x="0">0</tspan></text>
<text
           id="text122"
           style="font-variant:normal;font-weight:normal;font-size:16px;font-family:Helvetica;-inkscape-font-specification:Helvetica;writing-mode:lr-tb;fill:#000000;fill-opacity:1;fill-rule:nonzero;stroke:none"
           transform="matrix(1,0,0,-1,221.94,47.52)"><tspan
             id="tspan124"
             y="0"
             x="0 8.8959999 17.792 26.688">5000</tspan></text>
<text
           id="text126"
           style="font-variant:normal;font-weight:normal;font-size:16px;font-family:Helvetica;-inkscape-font-specification:Helvetica;writing-mode:lr-tb;fill:#000000;fill-opacity:1;fill-rule:nonzero;stroke:none"
           transform="matrix(1,0,0,-1,378.83,47.52)"><tspan
             id="tspan128"
             y="0"
             x="0 8.8959999 17.792 26.688 35.584">10000</tspan></text>
<text
           id="text130"
           style="font-variant:normal;font-weight:normal;font-size:16px;font-family:Helvetica;-inkscape-font-specification:Helvetica;writing-mode:lr-tb;fill:#000000;fill-opacity:1;fill-rule:nonzero;stroke:none"
           transform="matrix(1,0,0,-1,540.16,47.52)"><tspan
             id="tspan132"
             y="0"
             x="0 8.8959999 17.792 26.688 35.584">15000</tspan></text>
<path
           id="path134"
           style="fill:none;stroke:#000000;stroke-width:0.75;stroke-linecap:round;stroke-linejoin:round;stroke-miterlimit:10;stroke-dasharray:none;stroke-opacity:1"
           d="m 59.04,81.87 0,210.66" /><path
           id="path136"
           style="fill:none;stroke:#000000;stroke-width:0.75;stroke-linecap:round;stroke-linejoin:round;stroke-miterlimit:10;stroke-dasharray:none;stroke-opacity:1"
           d="m 59.04,81.87 -7.2,0" /><path
           id="path138"
           style="fill:none;stroke:#000000;stroke-width:0.75;stroke-linecap:round;stroke-linejoin:round;stroke-miterlimit:10;stroke-dasharray:none;stroke-opacity:1"
           d="m 59.04,134.53 -7.2,0" /><path
           id="path140"
           style="fill:none;stroke:#000000;stroke-width:0.75;stroke-linecap:round;stroke-linejoin:round;stroke-miterlimit:10;stroke-dasharray:none;stroke-opacity:1"
           d="m 59.04,187.2 -7.2,0" /><path
           id="path142"
           style="fill:none;stroke:#000000;stroke-width:0.75;stroke-linecap:round;stroke-linejoin:round;stroke-miterlimit:10;stroke-dasharray:none;stroke-opacity:1"
           d="m 59.04,239.87 -7.2,0" /><path
           id="path144"
           style="fill:none;stroke:#000000;stroke-width:0.75;stroke-linecap:round;stroke-linejoin:round;stroke-miterlimit:10;stroke-dasharray:none;stroke-opacity:1"
           d="m 59.04,292.53 -7.2,0" /><text
           id="text146"
           style="font-variant:normal;font-weight:normal;font-size:16px;font-family:Helvetica;-inkscape-font-specification:Helvetica;writing-mode:lr-tb;fill:#000000;fill-opacity:1;fill-rule:nonzero;stroke:none"
           transform="matrix(0,1,1,0,41.76,61.85)"><tspan
             id="tspan148"
             y="0"
             x="0 8.8959999 13.344 22.24 31.136">0.000</tspan></text>
<text
           id="text150"
           style="font-variant:normal;font-weight:normal;font-size:16px;font-family:Helvetica;-inkscape-font-specification:Helvetica;writing-mode:lr-tb;fill:#000000;fill-opacity:1;fill-rule:nonzero;stroke:none"
           transform="matrix(0,1,1,0,41.76,167.18)"><tspan
             id="tspan152"
             y="0"
             x="0 8.8959999 13.344 22.24 31.136">0.002</tspan></text>
<text
           id="text154"
           style="font-variant:normal;font-weight:normal;font-size:16px;font-family:Helvetica;-inkscape-font-specification:Helvetica;writing-mode:lr-tb;fill:#000000;fill-opacity:1;fill-rule:nonzero;stroke:none"
           transform="matrix(0,1,1,0,41.76,272.52)"><tspan
             id="tspan156"
             y="0"
             x="0 8.8959999 13.344 22.24 31.136">0.004</tspan></text>
<path
           id="path158"
           style="fill:none;stroke:#000000;stroke-width:0.75;stroke-linecap:round;stroke-linejoin:round;stroke-miterlimit:10;stroke-dasharray:none;stroke-opacity:1"
           d="m 59.04,73.44 522.72,0 0,227.52 -522.72,0 0,-227.52" /><text
           id="text160"
           style="font-variant:normal;font-weight:normal;font-size:16px;font-family:Helvetica;-inkscape-font-specification:Helvetica;writing-mode:lr-tb;fill:#000000;fill-opacity:1;fill-rule:nonzero;stroke:none"
           transform="matrix(1,0,0,-1,279.49,18.72)"><tspan
             id="tspan162"
             y="0"
             x="0 9.776 18.672001 24 32.896 41.792 50.688 59.584 68.480003 77.375999">Throughput</tspan></text>
<text
           id="text164"
           style="font-variant:normal;font-weight:normal;font-size:16px;font-family:Helvetica;-inkscape-font-specification:Helvetica;writing-mode:lr-tb;fill:#000000;fill-opacity:1;fill-rule:nonzero;stroke:none"
           transform="matrix(0,1,1,0,12.96,159.18)"><tspan
             id="tspan166"
             y="0"
             x="0 8.8959999 17.792 22.24 31.136 40.032001 48.032001">Latency</tspan></text>
</g></g></g></svg>