<?xml version="1.0" encoding="UTF-8" standalone="no"?>
<svg width="224pt" height="214pt" viewBox="0.00 0.00 224.00 214.00" xmlns="http://www.w3.org/2000/svg" xmlns:xlink="http://www.w3.org/1999/xlink">
<g transform="translate(4 210)">
<g style="fill:none;stroke:black">
<path d="M10,-106C31,-121 114,-182 134,-197"/>
<path d="M11,-103C40,-103 175,-103 204,-103"/>
<path d="M11,-105C38,-114 158,-153 185,-161"/>
<path d="M133,-6C121,-6 94,-6 83,-6"/>
<path d="M134,-8C115,-14 50,-35 31,-41"/>
<path d="M135,-9C114,-24 31,-85 11,-100"/>
<path d="M136,-11C119,-33 46,-136 29,-158"/>
<path d="M137,-11C128,-39 87,-167 79,-195"/>
<path d="M139,-12C139,-39 139,-166 139,-194"/>
<path d="M141,-11C149,-35 180,-133 188,-158"/>
<path d="M142,-10C154,-26 195,-82 207,-99"/>
<path d="M142,-196C154,-180 195,-124 207,-107"/>
<path d="M144,-197C153,-189 176,-173 185,-166"/>
<path d="M185,-40C176,-32 153,-16 144,-9"/>
<path d="M185,-41C166,-35 101,-14 82,-8"/>
<path d="M185,-43C160,-43 57,-43 32,-43"/>
<path d="M185,-45C158,-54 38,-93 11,-101"/>
<path d="M186,-46C163,-63 54,-143 30,-160"/>
<path d="M187,-48C170,-70 97,-173 80,-195"/>
<path d="M188,-48C180,-72 149,-170 141,-195"/>
<path d="M190,-48C190,-68 190,-137 190,-158"/>
<path d="M192,-49C196,-60 205,-86 208,-98"/>
<path d="M208,-109C204,-120 195,-146 192,-158"/>
<path d="M24,-49C20,-60 11,-86 8,-98"/>
<path d="M26,-48C26,-68 26,-137 26,-158"/>
<path d="M28,-48C36,-72 67,-170 75,-195"/>
<path d="M29,-48C46,-70 119,-173 136,-195"/>
<path d="M30,-46C53,-63 162,-143 186,-160"/>
<path d="M31,-161C58,-152 178,-113 205,-105"/>
<path d="M31,-163C56,-163 159,-163 184,-163"/>
<path d="M31,-165C50,-171 115,-192 134,-198"/>
<path d="M31,-166C40,-174 63,-190 72,-197"/>
<path d="M31,-45C58,-54 178,-93 205,-101"/>
<path d="M72,-9C63,-17 40,-33 31,-40"/>
<path d="M74,-10C62,-26 21,-82 9,-99"/>
<path d="M75,-11C67,-35 36,-133 28,-158"/>
<path d="M77,-12C77,-39 77,-166 77,-194"/>
<path d="M79,-11C88,-39 129,-167 137,-195"/>
<path d="M8,-109C12,-120 21,-146 24,-158"/>
<path d="M80,-11C97,-33 170,-136 187,-158"/>
<path d="M81,-197C102,-182 185,-121 205,-106"/>
<path d="M81,-9C102,-24 185,-85 205,-100"/>
<path d="M82,-198C101,-192 166,-171 185,-165"/>
<path d="M83,-200C95,-200 122,-200 133,-200"/>
<path d="M9,-107C21,-123 62,-179 74,-196"/>
</g>
<g style="fill:blue;stroke:black">
<circle cx="139" cy="-200" r="5.4"/>
<circle cx="139" cy="-6" r="5.4"/>
<circle cx="190" cy="-163" r="5.4"/>
<circle cx="190" cy="-43" r="5.4"/>
<circle cx="210" cy="-103" r="5.4"/>
<circle cx="26" cy="-163" r="5.4"/>
<circle cx="26" cy="-43" r="5.4"/>
<circle cx="6" cy="-103" r="5.4"/>
<circle cx="77" cy="-200" r="5.4"/>
<circle cx="77" cy="-6" r="5.4"/>
</g></g></svg>