<?xml version="1.0" encoding="UTF-8" standalone="no"?>
<svg
   xmlns:dc="http://purl.org/dc/elements/1.1/"
   xmlns:cc="http://creativecommons.org/ns#"
   xmlns:rdf="http://www.w3.org/1999/02/22-rdf-syntax-ns#"
   xmlns:svg="http://www.w3.org/2000/svg"
   xmlns="http://www.w3.org/2000/svg"
   viewBox="0 0 730.12848 379.8013"
   height="379.8013"
   width="730.12848"
   xml:space="preserve"
   version="1.1"
   id="svg2"><metadata
     id="metadata8"><rdf:RDF><cc:Work
         rdf:about=""><dc:format>image/svg+xml</dc:format><dc:type
           rdf:resource="http://purl.org/dc/dcmitype/StillImage" /></cc:Work></rdf:RDF></metadata><defs
     id="defs6"><clipPath
       id="clipPath12"
       clipPathUnits="userSpaceOnUse"><path
         id="path14"
         d="M 0,0 612,0 612,360 0,360 0,0 Z" /></clipPath><clipPath
       id="clipPath22"
       clipPathUnits="userSpaceOnUse"><path
         id="path24"
         d="M 0,0 612,0 612,360 0,360 0,0 Z" /></clipPath><clipPath
       id="clipPath32"
       clipPathUnits="userSpaceOnUse"><path
         id="path34"
         d="m 59.04,73.44 522.72,0 0,227.52 -522.72,0 0,-227.52 z" /></clipPath><clipPath
       id="clipPath42"
       clipPathUnits="userSpaceOnUse"><path
         id="path44"
         d="M 0,0 612,0 612,360 0,360 0,0 Z" /></clipPath><clipPath
       id="clipPath128"
       clipPathUnits="userSpaceOnUse"><path
         id="path130"
         d="m 59.04,73.44 522.72,0 0,227.52 -522.72,0 0,-227.52 z" /></clipPath></defs><g
     clip-path="url(#clipPath12)"
     transform="matrix(1.25,0,0,-1.25,0,396.84112)"
     id="g10"><g
       id="g16" /><g
       id="g18"><g
         clip-path="url(#clipPath22)"
         id="g20"><path
           id="path26"
           style="fill:#ffffff;fill-opacity:1;fill-rule:nonzero;stroke:none"
           d="M 0,0 612,0 612,360 0,360 0,0 Z" /></g></g><g
       id="g28"><g
         clip-path="url(#clipPath32)"
         id="g30"><path
           id="path36"
           style="fill:none;stroke:#000000;stroke-width:0.75;stroke-linecap:round;stroke-linejoin:round;stroke-miterlimit:10;stroke-dasharray:none;stroke-opacity:1"
           d="m 78.4,81.87 4.84,1.17 4.84,1.19 4.84,1.21 4.84,1.24 4.84,1.24 4.84,1.27 4.84,1.29 4.84,1.31 4.84,1.32 4.84,1.34 4.84,1.37 4.84,1.38 4.84,1.4 4.84,1.42 4.84,1.43 4.84,1.46 4.84,1.48 4.84,1.49 4.84,1.51 4.84,1.53 4.84,1.56 4.84,1.57 4.84,1.58 4.84,1.61 4.84,1.63 4.84,1.64 4.84,1.67 4.84,1.68 4.84,1.7 4.84,1.72 4.84,1.74 4.84,1.76 4.84,1.77 4.84,1.8 4.84,1.81 4.84,1.84 4.84,1.85 4.84,1.87 4.84,1.89 4.84,1.91 4.84,1.93 4.84,1.94 4.84,1.97 4.84,1.98 4.84,2.01 4.84,2.02 4.84,2.04 4.84,2.06 4.84,2.08 4.84,2.09 4.84,2.12 4.84,2.14 4.84,2.15 4.84,2.17 4.84,2.19 4.84,2.21 4.84,2.23 4.84,2.25 4.84,2.27 4.84,2.28 4.84,2.31 4.84,2.32 4.84,2.34 4.84,2.36 4.84,2.38 4.84,2.4 4.84,2.42 4.84,2.44 4.84,2.45 4.84,2.48 4.84,2.49 4.84,2.51 4.84,2.53 4.84,2.55 4.84,2.57 4.84,2.59 4.84,2.6 4.84,2.63 4.84,2.64 4.84,2.66 4.84,2.69 4.84,2.7 4.84,2.72 4.84,2.73 4.84,2.76 4.84,2.78 4.84,2.79 4.84,2.81 4.84,2.84 4.84,2.85 4.84,2.87 4.84,2.89 4.84,2.9 4.84,2.93 4.84,2.94 4.84,2.97 4.84,2.98 4.84,3 4.84,3.02 4.84,3.04" /></g></g><g
       id="g38"><g
         clip-path="url(#clipPath42)"
         id="g40"><path
           id="path46"
           style="fill:none;stroke:#000000;stroke-width:0.75;stroke-linecap:round;stroke-linejoin:round;stroke-miterlimit:10;stroke-dasharray:none;stroke-opacity:1"
           d="m 78.4,73.44 484,0" /><path
           id="path48"
           style="fill:none;stroke:#000000;stroke-width:0.75;stroke-linecap:round;stroke-linejoin:round;stroke-miterlimit:10;stroke-dasharray:none;stroke-opacity:1"
           d="m 78.4,73.44 0,-7.2" /><path
           id="path50"
           style="fill:none;stroke:#000000;stroke-width:0.75;stroke-linecap:round;stroke-linejoin:round;stroke-miterlimit:10;stroke-dasharray:none;stroke-opacity:1"
           d="m 159.07,73.44 0,-7.2" /><path
           id="path52"
           style="fill:none;stroke:#000000;stroke-width:0.75;stroke-linecap:round;stroke-linejoin:round;stroke-miterlimit:10;stroke-dasharray:none;stroke-opacity:1"
           d="m 239.73,73.44 0,-7.2" /><path
           id="path54"
           style="fill:none;stroke:#000000;stroke-width:0.75;stroke-linecap:round;stroke-linejoin:round;stroke-miterlimit:10;stroke-dasharray:none;stroke-opacity:1"
           d="m 320.4,73.44 0,-7.2" /><path
           id="path56"
           style="fill:none;stroke:#000000;stroke-width:0.75;stroke-linecap:round;stroke-linejoin:round;stroke-miterlimit:10;stroke-dasharray:none;stroke-opacity:1"
           d="m 401.07,73.44 0,-7.2" /><path
           id="path58"
           style="fill:none;stroke:#000000;stroke-width:0.75;stroke-linecap:round;stroke-linejoin:round;stroke-miterlimit:10;stroke-dasharray:none;stroke-opacity:1"
           d="m 481.73,73.44 0,-7.2" /><path
           id="path60"
           style="fill:none;stroke:#000000;stroke-width:0.75;stroke-linecap:round;stroke-linejoin:round;stroke-miterlimit:10;stroke-dasharray:none;stroke-opacity:1"
           d="m 562.4,73.44 0,-7.2" /><text
           id="text62"
           style="font-variant:normal;font-weight:normal;font-size:16px;font-family:Helvetica;-inkscape-font-specification:Helvetica;writing-mode:lr-tb;fill:#000000;fill-opacity:1;fill-rule:nonzero;stroke:none"
           transform="matrix(1,0,0,-1,73.95,47.52)"><tspan
             id="tspan64"
             y="0"
             x="0">0</tspan></text>
<text
           id="text66"
           style="font-variant:normal;font-weight:normal;font-size:16px;font-family:Helvetica;-inkscape-font-specification:Helvetica;writing-mode:lr-tb;fill:#000000;fill-opacity:1;fill-rule:nonzero;stroke:none"
           transform="matrix(1,0,0,-1,154.62,47.52)"><tspan
             id="tspan68"
             y="0"
             x="0">5</tspan></text>
<text
           id="text70"
           style="font-variant:normal;font-weight:normal;font-size:16px;font-family:Helvetica;-inkscape-font-specification:Helvetica;writing-mode:lr-tb;fill:#000000;fill-opacity:1;fill-rule:nonzero;stroke:none"
           transform="matrix(1,0,0,-1,230.84,47.52)"><tspan
             id="tspan72"
             y="0"
             x="0 8.8959999">10</tspan></text>
<text
           id="text74"
           style="font-variant:normal;font-weight:normal;font-size:16px;font-family:Helvetica;-inkscape-font-specification:Helvetica;writing-mode:lr-tb;fill:#000000;fill-opacity:1;fill-rule:nonzero;stroke:none"
           transform="matrix(1,0,0,-1,311.5,47.52)"><tspan
             id="tspan76"
             y="0"
             x="0 8.8959999">15</tspan></text>
<text
           id="text78"
           style="font-variant:normal;font-weight:normal;font-size:16px;font-family:Helvetica;-inkscape-font-specification:Helvetica;writing-mode:lr-tb;fill:#000000;fill-opacity:1;fill-rule:nonzero;stroke:none"
           transform="matrix(1,0,0,-1,392.17,47.52)"><tspan
             id="tspan80"
             y="0"
             x="0 8.8959999">20</tspan></text>
<text
           id="text82"
           style="font-variant:normal;font-weight:normal;font-size:16px;font-family:Helvetica;-inkscape-font-specification:Helvetica;writing-mode:lr-tb;fill:#000000;fill-opacity:1;fill-rule:nonzero;stroke:none"
           transform="matrix(1,0,0,-1,472.84,47.52)"><tspan
             id="tspan84"
             y="0"
             x="0 8.8959999">25</tspan></text>
<text
           id="text86"
           style="font-variant:normal;font-weight:normal;font-size:16px;font-family:Helvetica;-inkscape-font-specification:Helvetica;writing-mode:lr-tb;fill:#000000;fill-opacity:1;fill-rule:nonzero;stroke:none"
           transform="matrix(1,0,0,-1,553.5,47.52)"><tspan
             id="tspan88"
             y="0"
             x="0 8.8959999">30</tspan></text>
<path
           id="path90"
           style="fill:none;stroke:#000000;stroke-width:0.75;stroke-linecap:round;stroke-linejoin:round;stroke-miterlimit:10;stroke-dasharray:none;stroke-opacity:1"
           d="m 59.04,115.41 0,176" /><path
           id="path92"
           style="fill:none;stroke:#000000;stroke-width:0.75;stroke-linecap:round;stroke-linejoin:round;stroke-miterlimit:10;stroke-dasharray:none;stroke-opacity:1"
           d="m 59.04,115.41 -7.2,0" /><path
           id="path94"
           style="fill:none;stroke:#000000;stroke-width:0.75;stroke-linecap:round;stroke-linejoin:round;stroke-miterlimit:10;stroke-dasharray:none;stroke-opacity:1"
           d="m 59.04,159.41 -7.2,0" /><path
           id="path96"
           style="fill:none;stroke:#000000;stroke-width:0.75;stroke-linecap:round;stroke-linejoin:round;stroke-miterlimit:10;stroke-dasharray:none;stroke-opacity:1"
           d="m 59.04,203.41 -7.2,0" /><path
           id="path98"
           style="fill:none;stroke:#000000;stroke-width:0.75;stroke-linecap:round;stroke-linejoin:round;stroke-miterlimit:10;stroke-dasharray:none;stroke-opacity:1"
           d="m 59.04,247.41 -7.2,0" /><path
           id="path100"
           style="fill:none;stroke:#000000;stroke-width:0.75;stroke-linecap:round;stroke-linejoin:round;stroke-miterlimit:10;stroke-dasharray:none;stroke-opacity:1"
           d="m 59.04,291.41 -7.2,0" /><text
           id="text102"
           style="font-variant:normal;font-weight:normal;font-size:16px;font-family:Helvetica;-inkscape-font-specification:Helvetica;writing-mode:lr-tb;fill:#000000;fill-opacity:1;fill-rule:nonzero;stroke:none"
           transform="matrix(0,1,1,0,41.76,90.94)"><tspan
             id="tspan104"
             y="0"
             x="0 8.8959999 13.344 22.24 31.136 40.032001">0.0012</tspan></text>
<text
           id="text106"
           style="font-variant:normal;font-weight:normal;font-size:16px;font-family:Helvetica;-inkscape-font-specification:Helvetica;writing-mode:lr-tb;fill:#000000;fill-opacity:1;fill-rule:nonzero;stroke:none"
           transform="matrix(0,1,1,0,41.76,178.94)"><tspan
             id="tspan108"
             y="0"
             x="0 8.8959999 13.344 22.24 31.136 40.032001">0.0016</tspan></text>
<text
           id="text110"
           style="font-variant:normal;font-weight:normal;font-size:16px;font-family:Helvetica;-inkscape-font-specification:Helvetica;writing-mode:lr-tb;fill:#000000;fill-opacity:1;fill-rule:nonzero;stroke:none"
           transform="matrix(0,1,1,0,41.76,266.94)"><tspan
             id="tspan112"
             y="0"
             x="0 8.8959999 13.344 22.24 31.136 40.032001">0.0020</tspan></text>
<path
           id="path114"
           style="fill:none;stroke:#000000;stroke-width:0.75;stroke-linecap:round;stroke-linejoin:round;stroke-miterlimit:10;stroke-dasharray:none;stroke-opacity:1"
           d="m 59.04,73.44 522.72,0 0,227.52 -522.72,0 0,-227.52" /><text
           id="text116"
           style="font-variant:normal;font-weight:normal;font-size:16px;font-family:Helvetica;-inkscape-font-specification:Helvetica;writing-mode:lr-tb;fill:#000000;fill-opacity:1;fill-rule:nonzero;stroke:none"
           transform="matrix(1,0,0,-1,275.06,18.72)"><tspan
             id="tspan118"
             y="0"
             x="0 11.552 20.448 29.344 37.344002 46.240002 51.568001 56.896 65.792 74.688004 82.688004">Concurrency</tspan></text>
<text
           id="text120"
           style="font-variant:normal;font-weight:normal;font-size:16px;font-family:Helvetica;-inkscape-font-specification:Helvetica;writing-mode:lr-tb;fill:#000000;fill-opacity:1;fill-rule:nonzero;stroke:none"
           transform="matrix(0,1,1,0,12.96,131.18)"><tspan
             id="tspan122"
             y="0"
             x="0 11.552 20.448 28.448 37.344002 46.240002 55.136002 63.136002 72.031998 76.480003 86.255997 89.807999 103.136">Response Time</tspan></text>
</g></g><g
       id="g124"><g
         clip-path="url(#clipPath128)"
         id="g126"><path
           id="path132"
           style="fill:none;stroke:#000000;stroke-width:0.75;stroke-linecap:round;stroke-linejoin:round;stroke-miterlimit:10;stroke-dasharray:none;stroke-opacity:1"
           d="m 91.83,81.73 c 0,1.49 1.22,2.7 2.7,2.7 1.49,0 2.7,-1.21 2.7,-2.7 0,-1.48 -1.21,-2.7 -2.7,-2.7 -1.48,0 -2.7,1.22 -2.7,2.7" /><path
           id="path134"
           style="fill:none;stroke:#000000;stroke-width:0.75;stroke-linecap:round;stroke-linejoin:round;stroke-miterlimit:10;stroke-dasharray:none;stroke-opacity:1"
           d="m 107.97,85.58 c 0,1.49 1.21,2.7 2.7,2.7 1.48,0 2.7,-1.21 2.7,-2.7 0,-1.48 -1.22,-2.7 -2.7,-2.7 -1.49,0 -2.7,1.22 -2.7,2.7" /><path
           id="path136"
           style="fill:none;stroke:#000000;stroke-width:0.75;stroke-linecap:round;stroke-linejoin:round;stroke-miterlimit:10;stroke-dasharray:none;stroke-opacity:1"
           d="m 124.1,96.94 c 0,1.49 1.21,2.7 2.7,2.7 1.48,0 2.7,-1.21 2.7,-2.7 0,-1.48 -1.22,-2.7 -2.7,-2.7 -1.49,0 -2.7,1.22 -2.7,2.7" /><path
           id="path138"
           style="fill:none;stroke:#000000;stroke-width:0.75;stroke-linecap:round;stroke-linejoin:round;stroke-miterlimit:10;stroke-dasharray:none;stroke-opacity:1"
           d="m 140.23,99.39 c 0,1.48 1.22,2.7 2.7,2.7 1.49,0 2.7,-1.22 2.7,-2.7 0,-1.49 -1.21,-2.7 -2.7,-2.7 -1.48,0 -2.7,1.21 -2.7,2.7" /><path
           id="path140"
           style="fill:none;stroke:#000000;stroke-width:0.75;stroke-linecap:round;stroke-linejoin:round;stroke-miterlimit:10;stroke-dasharray:none;stroke-opacity:1"
           d="m 156.37,106.3 c 0,1.48 1.21,2.7 2.7,2.7 1.48,0 2.7,-1.22 2.7,-2.7 0,-1.49 -1.22,-2.7 -2.7,-2.7 -1.49,0 -2.7,1.21 -2.7,2.7" /><path
           id="path142"
           style="fill:none;stroke:#000000;stroke-width:0.75;stroke-linecap:round;stroke-linejoin:round;stroke-miterlimit:10;stroke-dasharray:none;stroke-opacity:1"
           d="m 172.5,108.69 c 0,1.49 1.21,2.7 2.7,2.7 1.49,0 2.7,-1.21 2.7,-2.7 0,-1.48 -1.21,-2.7 -2.7,-2.7 -1.49,0 -2.7,1.22 -2.7,2.7" /><path
           id="path144"
           style="fill:none;stroke:#000000;stroke-width:0.75;stroke-linecap:round;stroke-linejoin:round;stroke-miterlimit:10;stroke-dasharray:none;stroke-opacity:1"
           d="m 188.63,111.04 c 0,1.49 1.22,2.7 2.7,2.7 1.49,0 2.7,-1.21 2.7,-2.7 0,-1.48 -1.21,-2.7 -2.7,-2.7 -1.48,0 -2.7,1.22 -2.7,2.7" /><path
           id="path146"
           style="fill:none;stroke:#000000;stroke-width:0.75;stroke-linecap:round;stroke-linejoin:round;stroke-miterlimit:10;stroke-dasharray:none;stroke-opacity:1"
           d="m 204.77,120.89 c 0,1.48 1.21,2.7 2.7,2.7 1.48,0 2.7,-1.22 2.7,-2.7 0,-1.49 -1.22,-2.7 -2.7,-2.7 -1.49,0 -2.7,1.21 -2.7,2.7" /><path
           id="path148"
           style="fill:none;stroke:#000000;stroke-width:0.75;stroke-linecap:round;stroke-linejoin:round;stroke-miterlimit:10;stroke-dasharray:none;stroke-opacity:1"
           d="m 220.9,125.65 c 0,1.49 1.22,2.7 2.7,2.7 1.49,0 2.7,-1.21 2.7,-2.7 0,-1.48 -1.21,-2.7 -2.7,-2.7 -1.48,0 -2.7,1.22 -2.7,2.7" /><path
           id="path150"
           style="fill:none;stroke:#000000;stroke-width:0.75;stroke-linecap:round;stroke-linejoin:round;stroke-miterlimit:10;stroke-dasharray:none;stroke-opacity:1"
           d="m 237.03,131.03 c 0,1.49 1.22,2.7 2.7,2.7 1.49,0 2.7,-1.21 2.7,-2.7 0,-1.48 -1.21,-2.7 -2.7,-2.7 -1.48,0 -2.7,1.22 -2.7,2.7" /></g></g></g></svg>