<?xml version="1.0" encoding="UTF-8" standalone="no"?>
<svg
   xmlns:dc="http://purl.org/dc/elements/1.1/"
   xmlns:cc="http://creativecommons.org/ns#"
   xmlns:rdf="http://www.w3.org/1999/02/22-rdf-syntax-ns#"
   xmlns:svg="http://www.w3.org/2000/svg"
   xmlns="http://www.w3.org/2000/svg"
   viewBox="0 0 561.96173 526.13947"
   height="526.13947"
   width="561.96173"
   xml:space="preserve"
   id="svg2"
   version="1.1"><metadata
     id="metadata8"><rdf:RDF><cc:Work
         rdf:about=""><dc:format>image/svg+xml</dc:format><dc:type
           rdf:resource="http://purl.org/dc/dcmitype/StillImage" /></cc:Work></rdf:RDF></metadata><defs
     id="defs6"><clipPath
       id="clipPath14"
       clipPathUnits="userSpaceOnUse"><path
         id="path12"
         d="M 0,0 H 1024 V 768 H 0 Z" /></clipPath><clipPath
       id="clipPath24"
       clipPathUnits="userSpaceOnUse"><path
         id="path22"
         d="M 0,0 H 1024 V 768 H 0 Z" /></clipPath><clipPath
       id="clipPath38"
       clipPathUnits="userSpaceOnUse"><path
         id="path36"
         d="M 316.444,501.75 H 735.7279 V 626 H 316.444 Z" /></clipPath><clipPath
       id="clipPath52"
       clipPathUnits="userSpaceOnUse"><path
         id="path50"
         d="M 0,0 H 1024 V 768 H 0 Z" /></clipPath><clipPath
       id="clipPath62"
       clipPathUnits="userSpaceOnUse"><path
         id="path60"
         d="m 316.444,238.5312 h 419.2839 v 124.25 H 316.444 Z" /></clipPath><clipPath
       id="clipPath76"
       clipPathUnits="userSpaceOnUse"><path
         id="path74"
         d="M 0,0 H 1024 V 768 H 0 Z" /></clipPath><clipPath
       id="clipPath86"
       clipPathUnits="userSpaceOnUse"><path
         id="path84"
         d="m 316.444,411.5312 h 419.2839 v 41.46875 H 316.444 Z" /></clipPath></defs><g
     clip-path="url(#clipPath14)"
     transform="matrix(1.3333333,0,0,-1.3333333,-420.22827,839.494)"
     id="g10"><g
       id="g16" /><g
       id="g18"><g
         clip-path="url(#clipPath24)"
         id="g20"><path
           id="path26"
           style="fill:#ffffff;fill-opacity:1;fill-rule:nonzero;stroke:none"
           d="M 0,768 H 1024 V 0 H 0 Z" /><path
           id="path28"
           style="fill:#929292;fill-opacity:1;fill-rule:nonzero;stroke:none"
           d="m 574.1206,403.9648 h 16.7251 l -64.7598,-37.4336 -64.7597,37.4336 h 16.725 v 56.6016 h -16.725 L 526.0859,498 590.8457,460.5664 h -16.7251 z" /><path
           id="path30"
           style="fill:#00a2ff;fill-opacity:1;fill-rule:nonzero;stroke:none"
           d="M 319,626 H 733.1719 V 501.75 H 319 Z" /></g></g><g
       id="g32"><g
         clip-path="url(#clipPath38)"
         id="g34"><g
           transform="translate(463,555)"
           id="g40"><text
             id="text44"
             style="font-variant:normal;font-weight:500;font-size:22px;font-family:HelveticaNeue;-inkscape-font-specification:HelveticaNeue-Medium;writing-mode:lr-tb;fill:#ffffff;fill-opacity:1;fill-rule:nonzero;stroke:none"
             transform="scale(1,-1)"><tspan
               id="tspan42"
               y="0"
               x="0 15.488 28.534 39.952 51.369999 55.858002 67.276001 73.391998 93.764 106.81 114.554">Boss’s Work</tspan></text>
</g></g></g><g
       id="g46"><g
         clip-path="url(#clipPath52)"
         id="g48"><path
           id="path54"
           style="fill:#00a2ff;fill-opacity:1;fill-rule:nonzero;stroke:none"
           d="M 319,362.7813 H 733.1719 V 238.5312 H 319 Z" /></g></g><g
       id="g56"><g
         clip-path="url(#clipPath62)"
         id="g58"><g
           transform="translate(481,292)"
           id="g64"><text
             id="text68"
             style="font-variant:normal;font-weight:500;font-size:22px;font-family:HelveticaNeue;-inkscape-font-specification:HelveticaNeue-Medium;writing-mode:lr-tb;fill:#ffffff;fill-opacity:1;fill-rule:nonzero;stroke:none"
             transform="scale(1,-1)"><tspan
               id="tspan66"
               y="0"
               x="0 19.558001 30.976 37.091999 57.464001 70.510002 78.253998">My Work</tspan></text>
</g></g></g><g
       id="g70"><g
         clip-path="url(#clipPath76)"
         id="g72"><path
           id="path78"
           style="fill:#929292;fill-opacity:1;fill-rule:nonzero;stroke:none"
           d="M 319,453 H 733.1719 V 411.5312 H 319 Z" /></g></g><g
       id="g80"><g
         clip-path="url(#clipPath86)"
         id="g82"><g
           transform="translate(412,424)"
           id="g88"><text
             id="text92"
             style="font-variant:normal;font-weight:500;font-size:22px;font-family:HelveticaNeue;-inkscape-font-specification:HelveticaNeue-Medium;writing-mode:lr-tb;fill:#ffffff;fill-opacity:1;fill-rule:nonzero;stroke:none"
             transform="scale(1,-1)"><tspan
               id="tspan90"
               y="0"
               x="0 13.046 25.674 37.905998 44.021999 50.138 62.765999 70.092003 82.323997 90.068001 96.998001 109.23 121.462 133.694 139.81 155.298 167.53 174.856 191.972 204.20399 216.436">The Interface Between</tspan></text>
</g></g></g></g></svg>