<?xml version="1.0" encoding="UTF-8" standalone="no"?>
<svg
   xmlns:dc="http://purl.org/dc/elements/1.1/"
   xmlns:cc="http://creativecommons.org/ns#"
   xmlns:rdf="http://www.w3.org/1999/02/22-rdf-syntax-ns#"
   xmlns:svg="http://www.w3.org/2000/svg"
   xmlns="http://www.w3.org/2000/svg"
   viewBox="0 0 690.66669 557.33331"
   height="557.33331"
   width="690.66669"
   xml:space="preserve"
   id="svg2"
   version="1.1"><metadata
     id="metadata8"><rdf:RDF><cc:Work
         rdf:about=""><dc:format>image/svg+xml</dc:format><dc:type
           rdf:resource="http://purl.org/dc/dcmitype/StillImage" /></cc:Work></rdf:RDF></metadata><defs
     id="defs6"><clipPath
       id="clipPath20"
       clipPathUnits="userSpaceOnUse"><path
         id="path18"
         d="M 0,0 H 518 V 418 H 0 Z" /></clipPath></defs><g
     transform="matrix(1.3333333,0,0,-1.3333333,0,557.33333)"
     id="g10"><g
       id="g12" /><g
       id="g14"><g
         clip-path="url(#clipPath20)"
         id="g16"><path
           id="path22"
           style="fill:#ffffff;fill-opacity:1;fill-rule:nonzero;stroke:none"
           d="M 0,418 H 518 V 0 H 0 Z" /></g></g><g
       id="g24"><path
         id="path26"
         style="fill:#5b9bd5;fill-opacity:1;fill-rule:nonzero;stroke:none"
         d="m 1.5,375.5 31,42 h 93 l 31,-42 -31,-42 h -93 z" /><g
         transform="matrix(7.874016e-5,0,0,-7.874016e-5,1.5,417.5)"
         id="g28"><path
           id="path30"
           style="fill:none;stroke:#41719c;stroke-width:12700;stroke-linecap:butt;stroke-linejoin:miter;stroke-miterlimit:8;stroke-dasharray:none;stroke-opacity:1"
           d="M 0,533400 393700,0 h 1181100 l 393700,533400 -393700,533400 H 393700 Z" /></g><g
         transform="translate(60.86937,-24)"
         id="g32"><text
           id="text36"
           style="font-variant:normal;font-weight:normal;font-size:12px;font-family:Roboto;-inkscape-font-specification:Roboto-Regular;writing-mode:lr-tb;fill:#ffffff;fill-opacity:1;fill-rule:nonzero;stroke:none"
           transform="matrix(1,0,0,-1,0,418)"><tspan
             id="tspan34"
             y="0"
             x="0 8.0003996 12.0048 19.009199 23.013599 26.01 29.006399 35.0028">Profile </tspan></text>
</g><g
         transform="translate(40.86937,-39)"
         id="g38"><text
           id="text42"
           style="font-variant:normal;font-weight:normal;font-size:12px;font-family:Roboto;-inkscape-font-specification:Roboto-Regular;writing-mode:lr-tb;fill:#ffffff;fill-opacity:1;fill-rule:nonzero;stroke:none"
           transform="matrix(1,0,0,-1,0,418)"><tspan
             id="tspan40"
             y="0"
             x="0 6.9995999 14.9952 24.994801 28.9944 31.997999 38.997601 42.9972 49.000801 56.000401 62.004002 68.007599 72.007202 74.0028">SUM(latency), </tspan></text>
</g><g
         transform="translate(67.86937,-53)"
         id="g44"><text
           id="text48"
           style="font-variant:normal;font-weight:normal;font-size:12px;font-family:Roboto;-inkscape-font-specification:Roboto-Regular;writing-mode:lr-tb;fill:#ffffff;fill-opacity:1;fill-rule:nonzero;stroke:none"
           transform="matrix(1,0,0,-1,0,418)"><tspan
             id="tspan46"
             y="0"
             x="0 6 12.996 16.992001 20.988001">sort </tspan></text>
</g><g
         transform="translate(45.86937,-68)"
         id="g50"><text
           id="text54"
           style="font-variant:normal;font-weight:normal;font-size:12px;font-family:Roboto;-inkscape-font-specification:Roboto-Regular;writing-mode:lr-tb;fill:#ffffff;fill-opacity:1;fill-rule:nonzero;stroke:none"
           transform="matrix(1,0,0,-1,0,418)"><tspan
             id="tspan52"
             y="0"
             x="0 6.9995999 14.9952 24.994801 28.9944 34.998001 41.997601 48.9972 55.996799 59.996399">SUM(count)</tspan></text>
</g><path
         id="path56"
         style="fill:#5b9bd5;fill-opacity:1;fill-rule:nonzero;stroke:none"
         d="M 177.5,376 255,415.5 332.5,376 255,336.5 Z" /><g
         transform="matrix(7.874016e-5,0,0,-7.874016e-5,177.5,415.5)"
         id="g58"><path
           id="path60"
           style="fill:none;stroke:#41719c;stroke-width:12700;stroke-linecap:butt;stroke-linejoin:miter;stroke-miterlimit:8;stroke-dasharray:none;stroke-opacity:1"
           d="M 0,501650 984250,0 1968500,501650 984250,1003300 Z" /></g><g
         transform="translate(239.1315,-31)"
         id="g62"><text
           id="text66"
           style="font-variant:normal;font-weight:normal;font-size:12px;font-family:Roboto;-inkscape-font-specification:Roboto-Regular;writing-mode:lr-tb;fill:#ffffff;fill-opacity:1;fill-rule:nonzero;stroke:none"
           transform="matrix(1,0,0,-1,0,418)"><tspan
             id="tspan64"
             y="0"
             x="0 6.9995999 10.0032 20.9988">Time</tspan></text>
</g><g
         transform="translate(266.1315,-31)"
         id="g68"><text
           id="text72"
           style="font-variant:normal;font-weight:normal;font-size:12px;font-family:Roboto;-inkscape-font-specification:Roboto-Regular;writing-mode:lr-tb;fill:#ffffff;fill-opacity:1;fill-rule:nonzero;stroke:none"
           transform="matrix(1,0,0,-1,0,418)"><tspan
             id="tspan70"
             y="0"
             x="0">-</tspan></text>
</g><g
         transform="translate(223.1315,-46)"
         id="g74"><text
           id="text78"
           style="font-variant:normal;font-weight:normal;font-size:12px;font-family:Roboto;-inkscape-font-specification:Roboto-Regular;writing-mode:lr-tb;fill:#ffffff;fill-opacity:1;fill-rule:nonzero;stroke:none"
           transform="matrix(1,0,0,-1,0,418)"><tspan
             id="tspan76"
             y="0"
             x="0 6 12.996 19.992001 25.992001 32.987999 43.992001 46.992001 53.987999 60.984001 62.987999">consuming, </tspan></text>
</g><g
         transform="translate(229.1315,-60)"
         id="g80"><text
           id="text84"
           style="font-variant:normal;font-weight:normal;font-size:12px;font-family:Roboto;-inkscape-font-specification:Roboto-Regular;writing-mode:lr-tb;fill:#ffffff;fill-opacity:1;fill-rule:nonzero;stroke:none"
           transform="matrix(1,0,0,-1,0,418)"><tspan
             id="tspan82"
             y="0"
             x="0 3.9995999 7.9991999 14.0028 21.002399 28.002001 34.0056 41.005199 45.004799">frequent?</tspan></text>
</g><path
         id="path86"
         style="fill:#5b9bd5;fill-opacity:1;fill-rule:nonzero;stroke:none"
         d="m 156,377 16.5065,-10e-5 v -2 L 156,375 Z m 15.5065,1.9999 6,-3 -6.0001,-3 z" /><path
         id="path88"
         style="fill:#5b9bd5;fill-opacity:1;fill-rule:nonzero;stroke:none"
         d="m 23.5,281.3332 c 0,5.615 4.55184,10.1668 10.16682,10.1668 h 89.66638 c 5.615,0 10.1668,-4.5518 10.1668,-10.1668 v -40.6664 c 0,-5.615 -4.5518,-10.1668 -10.1668,-10.1668 H 33.66682 C 28.05184,230.5 23.5,235.0518 23.5,240.6668 Z" /><g
         transform="matrix(7.874016e-5,0,0,-7.874016e-5,23.5,291.5)"
         id="g90"><path
           id="path92"
           style="fill:none;stroke:#41719c;stroke-width:12700;stroke-linecap:butt;stroke-linejoin:miter;stroke-miterlimit:8;stroke-dasharray:none;stroke-opacity:1"
           d="M 0,129118.7 C 0,57808.41 57808.37,0 129118.6,0 H 1267881 c 71311,0 129119,57808.41 129119,129118.7 v 516462.6 c 0,71310.3 -57808,129118.7 -129119,129118.7 H 129118.6 C 57808.37,774700 0,716891.6 0,645581.3 Z" /></g><g
         transform="translate(60.68181,-139)"
         id="g94"><text
           id="text98"
           style="font-variant:normal;font-weight:normal;font-size:12px;font-family:Roboto;-inkscape-font-specification:Roboto-Regular;writing-mode:lr-tb;fill:#ffffff;fill-opacity:1;fill-rule:nonzero;stroke:none"
           transform="matrix(1,0,0,-1,0,418)"><tspan
             id="tspan96"
             y="0"
             x="0 8.0003996 12.0048 19.009199 23.013599 26.01 29.006399 35.0028">Profile </tspan></text>
</g><g
         transform="translate(44.68181,-154)"
         id="g100"><text
           id="text104"
           style="font-variant:normal;font-weight:normal;font-size:12px;font-family:Roboto;-inkscape-font-specification:Roboto-Regular;writing-mode:lr-tb;fill:#ffffff;fill-opacity:1;fill-rule:nonzero;stroke:none"
           transform="matrix(1,0,0,-1,0,418)"><tspan
             id="tspan102"
             y="0"
             x="0 6.9995999 14.9952 24.994801 28.9944 34.998001 41.997601 48.9972 55.996799 59.996399 63.995998 65.9916">SUM(count), </tspan></text>
</g><g
         transform="translate(67.68181,-168)"
         id="g106"><text
           id="text110"
           style="font-variant:normal;font-weight:normal;font-size:12px;font-family:Roboto;-inkscape-font-specification:Roboto-Regular;writing-mode:lr-tb;fill:#ffffff;fill-opacity:1;fill-rule:nonzero;stroke:none"
           transform="matrix(1,0,0,-1,0,418)"><tspan
             id="tspan108"
             y="0"
             x="0 6 12.996 16.992001 20.988001">sort </tspan></text>
</g><g
         transform="translate(41.68181,-183)"
         id="g112"><text
           id="text116"
           style="font-variant:normal;font-weight:normal;font-size:12px;font-family:Roboto;-inkscape-font-specification:Roboto-Regular;writing-mode:lr-tb;fill:#ffffff;fill-opacity:1;fill-rule:nonzero;stroke:none"
           transform="matrix(1,0,0,-1,0,418)"><tspan
             id="tspan114"
             y="0"
             x="0 6.9995999 14.9952 24.994801 28.9944 31.997999 38.997601 42.9972 49.000801 56.000401 62.004002 68.007599">SUM(latency)</tspan></text>
</g><path
         id="path118"
         style="fill:#5b9bd5;fill-opacity:1;fill-rule:nonzero;stroke:none"
         d="M 255.2597,337 V 313.6452 H 78 l 1,1 v -17.3548 h -2 v 18.3548 h 177.2597 l -1,-1 V 337 Z M 81,298.2904 l -3,-6 -3,6 z" /><g
         transform="translate(162.9922,-103)"
         id="g120"><text
           id="text124"
           style="font-variant:normal;font-weight:normal;font-size:18px;font-family:ArialMT;-inkscape-font-specification:ArialMT;writing-mode:lr-tb;fill:#000000;fill-opacity:1;fill-rule:nonzero;stroke:none"
           transform="matrix(1,0,0,-1,0,418)"><tspan
             id="tspan122"
             y="0"
             x="0 12.9996">No</tspan></text>
</g><path
         id="path126"
         style="fill:#5b9bd5;fill-opacity:1;fill-rule:nonzero;stroke:none"
         d="m 393.5,396.3331 c 0,5.615 4.5519,10.1669 10.1669,10.1669 h 102.6662 c 5.615,0 10.1669,-4.5519 10.1669,-10.1669 v -40.6662 c 0,-5.615 -4.5519,-10.1669 -10.1669,-10.1669 H 403.6669 c -5.615,0 -10.1669,4.5519 -10.1669,10.1669 z" /><g
         transform="matrix(7.874016e-5,0,0,-7.874016e-5,393.5,406.5)"
         id="g128"><path
           id="path130"
           style="fill:none;stroke:#41719c;stroke-width:12700;stroke-linecap:butt;stroke-linejoin:miter;stroke-miterlimit:8;stroke-dasharray:none;stroke-opacity:1"
           d="M 0,129119.5 C 0,57808.78 57808.66,0 129119.3,0 H 1432981 c 71310,0 129119,57808.78 129119,129119.5 v 516461 c 0,71310.7 -57809,129119.5 -129119,129119.5 H 129119.3 C 57808.66,774700 0,716891.2 0,645580.5 Z" /></g><g
         transform="translate(408.7216,-31)"
         id="g132"><text
           id="text136"
           style="font-variant:normal;font-weight:normal;font-size:12px;font-family:Roboto;-inkscape-font-specification:Roboto-Regular;writing-mode:lr-tb;fill:#ffffff;fill-opacity:1;fill-rule:nonzero;stroke:none"
           transform="matrix(1,0,0,-1,0,418)"><tspan
             id="tspan134"
             y="0"
             x="0 8.0003996 15.0048 21.0012 26.997601 32.993999 35.990398 39.994801 46.999199 51.003601 54 59.996399 62.992802 73.993202 80.997597 83.994003 89.990402">Check for simple </tspan></text>
</g><g
         transform="translate(414.7216,-46)"
         id="g138"><text
           id="text142"
           style="font-variant:normal;font-weight:normal;font-size:12px;font-family:Roboto;-inkscape-font-specification:Roboto-Regular;writing-mode:lr-tb;fill:#ffffff;fill-opacity:1;fill-rule:nonzero;stroke:none"
           transform="matrix(1,0,0,-1,0,418)"><tspan
             id="tspan140"
             y="0"
             x="0 6 12.996 18.996 24.996 31.992001 38.987999 45.984001 51.984001 54.984001 58.98 64.980003 67.980003 74.975998 77.975998">speedups (e.g. </tspan></text>
</g><g
         transform="translate(431.7216,-60)"
         id="g144"><text
           id="text148"
           style="font-variant:normal;font-weight:normal;font-size:12px;font-family:Roboto;-inkscape-font-specification:Roboto-Regular;writing-mode:lr-tb;fill:#ffffff;fill-opacity:1;fill-rule:nonzero;stroke:none"
           transform="matrix(1,0,0,-1,0,418)"><tspan
             id="tspan146"
             y="0"
             x="0 3 9.9960003 16.992001 22.992001 28.992001 34.992001 40.992001">indexes)</tspan></text>
</g><path
         id="path150"
         style="fill:#5b9bd5;fill-opacity:1;fill-rule:nonzero;stroke:none"
         d="m 332,377 55.9514,-10e-5 v -2 L 332,375 Z m 54.9514,1.9999 6,-3 -6,-3 z" /><g
         transform="translate(340.6948,-39)"
         id="g152"><text
           id="text156"
           style="font-variant:normal;font-weight:normal;font-size:18px;font-family:ArialMT;-inkscape-font-specification:ArialMT;writing-mode:lr-tb;fill:#000000;fill-opacity:1;fill-rule:nonzero;stroke:none"
           transform="matrix(1,0,0,-1,0,418)"><tspan
             id="tspan154"
             y="0"
             x="0 12.0006 22.003201">Yes</tspan></text>
</g><path
         id="path158"
         style="fill:#5b9bd5;fill-opacity:1;fill-rule:nonzero;stroke:none"
         d="M 177.5,261 255,300.5 332.5,261 255,221.5 Z" /><g
         transform="matrix(7.874016e-5,0,0,-7.874016e-5,177.5,300.5)"
         id="g160"><path
           id="path162"
           style="fill:none;stroke:#41719c;stroke-width:12700;stroke-linecap:butt;stroke-linejoin:miter;stroke-miterlimit:8;stroke-dasharray:none;stroke-opacity:1"
           d="M 0,501650 984250,0 1968500,501650 984250,1003300 Z" /></g><g
         transform="translate(229.1315,-153)"
         id="g164"><text
           id="text168"
           style="font-variant:normal;font-weight:normal;font-size:12px;font-family:Roboto;-inkscape-font-specification:Roboto-Regular;writing-mode:lr-tb;fill:#ffffff;fill-opacity:1;fill-rule:nonzero;stroke:none"
           transform="matrix(1,0,0,-1,0,418)"><tspan
             id="tspan166"
             y="0"
             x="0 6.9995999 10.9992 17.0028 24.002399 31.002001 37.0056 44.005199 48.004799 50.000401">Frequent, </tspan></text>
</g><g
         transform="translate(239.1315,-168)"
         id="g170"><text
           id="text174"
           style="font-variant:normal;font-weight:normal;font-size:12px;font-family:Roboto;-inkscape-font-specification:Roboto-Regular;writing-mode:lr-tb;fill:#ffffff;fill-opacity:1;fill-rule:nonzero;stroke:none"
           transform="matrix(1,0,0,-1,0,418)"><tspan
             id="tspan172"
             y="0"
             x="0 6 9 15.996 24.996">slow?</tspan></text>
</g><path
         id="path176"
         style="fill:#5b9bd5;fill-opacity:1;fill-rule:nonzero;stroke:none"
         d="M 133,260.9999 172.4157,261 v 2 L 133,262.9999 Z M 171.4157,259 l 6,3 -6,3 z" /><path
         id="path178"
         style="fill:#5b9bd5;fill-opacity:1;fill-rule:nonzero;stroke:none"
         d="m 393.5,281.3331 c 0,5.615 4.5519,10.1669 10.1669,10.1669 h 102.6662 c 5.615,0 10.1669,-4.5519 10.1669,-10.1669 v -40.6662 c 0,-5.615 -4.5519,-10.1669 -10.1669,-10.1669 H 403.6669 c -5.615,0 -10.1669,4.5519 -10.1669,10.1669 z" /><g
         transform="matrix(7.874016e-5,0,0,-7.874016e-5,393.5,291.5)"
         id="g180"><path
           id="path182"
           style="fill:none;stroke:#41719c;stroke-width:12700;stroke-linecap:butt;stroke-linejoin:miter;stroke-miterlimit:8;stroke-dasharray:none;stroke-opacity:1"
           d="M 0,129119.5 C 0,57808.78 57808.66,0 129119.3,0 H 1432981 c 71310,0 129119,57808.78 129119,129119.5 v 516461 c 0,71310.7 -57809,129119.5 -129119,129119.5 H 129119.3 C 57808.66,774700 0,716891.2 0,645580.5 Z" /></g><g
         transform="translate(403.7216,-153)"
         id="g184"><text
           id="text188"
           style="font-variant:normal;font-weight:normal;font-size:12px;font-family:Roboto;-inkscape-font-specification:Roboto-Regular;writing-mode:lr-tb;fill:#ffffff;fill-opacity:1;fill-rule:nonzero;stroke:none"
           transform="matrix(1,0,0,-1,0,418)"><tspan
             id="tspan186"
             y="0"
             x="0 8.0003996 15.0048 21.0012 26.997601 32.993999 35.990398 39.994801 46.999199 51.003601 54 61.004398 67.000801 72.9972 80.001602 82.998001 88.9944 94.990799 100.9872">Check for needless </tspan></text>
</g><g
         transform="translate(405.7216,-168)"
         id="g190"><text
           id="text194"
           style="font-variant:normal;font-weight:normal;font-size:12px;font-family:Roboto;-inkscape-font-specification:Roboto-Regular;writing-mode:lr-tb;fill:#ffffff;fill-opacity:1;fill-rule:nonzero;stroke:none"
           transform="matrix(1,0,0,-1,0,418)"><tspan
             id="tspan192"
             y="0"
             x="0 6.9995999 13.9992 20.0028 24.002399 27.006001 33.009602 39.013199 42.0168 46.016399 52.02 55.023602 62.023201 65.026802 69.026398 78.029999 85.029602 92.029198">queries (e.g. N+1)</tspan></text>
</g><path
         id="path196"
         style="fill:#5b9bd5;fill-opacity:1;fill-rule:nonzero;stroke:none"
         d="m 332,263 55.9514,-10e-5 v -2 L 332,261 Z m 54.9514,1.9999 6,-3 -6,-3 z" /><g
         transform="translate(341.5533,-154)"
         id="g198"><text
           id="text202"
           style="font-variant:normal;font-weight:normal;font-size:18px;font-family:ArialMT;-inkscape-font-specification:ArialMT;writing-mode:lr-tb;fill:#000000;fill-opacity:1;fill-rule:nonzero;stroke:none"
           transform="matrix(1,0,0,-1,0,418)"><tspan
             id="tspan200"
             y="0"
             x="0 12.0006 22.003201">Yes</tspan></text>
</g><path
         id="path204"
         style="fill:#5b9bd5;fill-opacity:1;fill-rule:nonzero;stroke:none"
         d="m 23.5,155.3331 c 0,5.615 4.55187,10.1669 10.1669,10.1669 h 88.6662 c 5.615,0 10.1669,-4.5519 10.1669,-10.1669 v -40.6662 c 0,-5.615 -4.5519,-10.1669 -10.1669,-10.1669 H 33.6669 C 28.05187,104.5 23.5,109.0519 23.5,114.6669 Z" /><g
         transform="matrix(7.874016e-5,0,0,-7.874016e-5,23.5,165.5)"
         id="g206"><path
           id="path208"
           style="fill:none;stroke:#41719c;stroke-width:12700;stroke-linecap:butt;stroke-linejoin:miter;stroke-miterlimit:8;stroke-dasharray:none;stroke-opacity:1"
           d="M 0,129119.7 C 0,57808.85 57808.8,0 129119.6,0 H 1255180 c 71311,0 129120,57808.85 129120,129119.7 v 516460.6 c 0,71310.8 -57809,129119.7 -129120,129119.7 H 129119.6 C 57808.8,774700 0,716891.1 0,645580.3 Z" /></g><g
         transform="translate(59.76748,-272)"
         id="g210"><text
           id="text214"
           style="font-variant:normal;font-weight:normal;font-size:12px;font-family:Roboto;-inkscape-font-specification:Roboto-Regular;writing-mode:lr-tb;fill:#ffffff;fill-opacity:1;fill-rule:nonzero;stroke:none"
           transform="matrix(1,0,0,-1,0,418)"><tspan
             id="tspan212"
             y="0"
             x="0 8.0003996 12.0048 19.009199 23.013599 26.01 29.006399 35.0028">Profile </tspan></text>
</g><g
         transform="translate(43.76748,-287)"
         id="g216"><text
           id="text220"
           style="font-variant:normal;font-weight:normal;font-size:12px;font-family:Roboto;-inkscape-font-specification:Roboto-Regular;writing-mode:lr-tb;fill:#ffffff;fill-opacity:1;fill-rule:nonzero;stroke:none"
           transform="matrix(1,0,0,-1,0,418)"><tspan
             id="tspan218"
             y="0"
             x="0 6.9995999 14.9952 24.994801 28.9944 34.998001 41.997601 48.9972 55.996799 59.996399 63.995998 65.9916">SUM(count), </tspan></text>
</g><g
         transform="translate(32.76748,-301)"
         id="g222"><text
           id="text226"
           style="font-variant:normal;font-weight:normal;font-size:12px;font-family:Roboto;-inkscape-font-specification:Roboto-Regular;writing-mode:lr-tb;fill:#ffffff;fill-opacity:1;fill-rule:nonzero;stroke:none"
           transform="matrix(1,0,0,-1,0,418)"><tspan
             id="tspan224"
             y="0"
             x="0 6 12.996 16.992001 20.988001 23.988001 30.983999 38.987999 48.984001 52.98 58.98 65.975998 72.972 79.968002 83.963997">sort SUM(count)</tspan></text>
</g><path
         id="path228"
         style="fill:#5b9bd5;fill-opacity:1;fill-rule:nonzero;stroke:none"
         d="M 255.1765,222 V 192.9253 H 76.99999 l 1,1 v -23.0747 h -2 v 24.0747 H 254.1765 l -1,-1 V 222 Z m -175.17651,-50.1494 -3,-6 -3,6 z" /><path
         id="path230"
         style="fill:#5b9bd5;fill-opacity:1;fill-rule:nonzero;stroke:none"
         d="M 177.5,135 255,174.5 332.5,135 255,95.5 Z" /><g
         transform="matrix(7.874016e-5,0,0,-7.874016e-5,177.5,174.5)"
         id="g232"><path
           id="path234"
           style="fill:none;stroke:#41719c;stroke-width:12700;stroke-linecap:butt;stroke-linejoin:miter;stroke-miterlimit:8;stroke-dasharray:none;stroke-opacity:1"
           d="M 0,501650 984250,0 1968500,501650 984250,1003300 Z" /></g><g
         transform="translate(229.1315,-279)"
         id="g236"><text
           id="text240"
           style="font-variant:normal;font-weight:normal;font-size:12px;font-family:Roboto;-inkscape-font-specification:Roboto-Regular;writing-mode:lr-tb;fill:#ffffff;fill-opacity:1;fill-rule:nonzero;stroke:none"
           transform="matrix(1,0,0,-1,0,418)"><tspan
             id="tspan238"
             y="0"
             x="0 6.9995999 10.9992 17.0028 24.002399 31.002001 37.0056 44.005199">Frequent</tspan></text>
</g><g
         transform="translate(277.1315,-279)"
         id="g242"><text
           id="text246"
           style="font-variant:normal;font-weight:normal;font-size:12px;font-family:Roboto;-inkscape-font-specification:Roboto-Regular;writing-mode:lr-tb;fill:#ffffff;fill-opacity:1;fill-rule:nonzero;stroke:none"
           transform="matrix(1,0,0,-1,0,418)"><tspan
             id="tspan244"
             y="0"
             x="0 2.0004001">, </tspan></text>
</g><g
         transform="translate(231.1315,-294)"
         id="g248"><text
           id="text252"
           style="font-variant:normal;font-weight:normal;font-size:12px;font-family:Roboto;-inkscape-font-specification:Roboto-Regular;writing-mode:lr-tb;fill:#ffffff;fill-opacity:1;fill-rule:nonzero;stroke:none"
           transform="matrix(1,0,0,-1,0,418)"><tspan
             id="tspan250"
             y="0"
             x="0 6.9995999 13.0032 19.0068 22.010401 28.014 34.017601 40.021198">useless?</tspan></text>
</g><path
         id="path254"
         style="fill:#5b9bd5;fill-opacity:1;fill-rule:nonzero;stroke:none"
         d="m 132,137 40.3325,-1e-4 v -2 L 132,135 Z m 39.3325,1.9999 6,-3 -6,-3 z" /><path
         id="path256"
         style="fill:#5b9bd5;fill-opacity:1;fill-rule:nonzero;stroke:none"
         d="m 394.5,156.3331 c 0,5.615 4.5519,10.1669 10.1669,10.1669 h 102.6662 c 5.615,0 10.1669,-4.5519 10.1669,-10.1669 v -40.6662 c 0,-5.615 -4.5519,-10.1669 -10.1669,-10.1669 H 404.6669 c -5.615,0 -10.1669,4.5519 -10.1669,10.1669 z" /><g
         transform="matrix(7.874016e-5,0,0,-7.874016e-5,394.5,166.5)"
         id="g258"><path
           id="path260"
           style="fill:none;stroke:#41719c;stroke-width:12700;stroke-linecap:butt;stroke-linejoin:miter;stroke-miterlimit:8;stroke-dasharray:none;stroke-opacity:1"
           d="M 0,129119.5 C 0,57808.78 57808.66,0 129119.3,0 H 1432981 c 71310,0 129119,57808.78 129119,129119.5 v 516461 c 0,71310.7 -57809,129119.5 -129119,129119.5 H 129119.3 C 57808.66,774700 0,716891.2 0,645580.5 Z" /></g><g
         transform="translate(411.5555,-278)"
         id="g262"><text
           id="text266"
           style="font-variant:normal;font-weight:normal;font-size:12px;font-family:Roboto;-inkscape-font-specification:Roboto-Regular;writing-mode:lr-tb;fill:#ffffff;fill-opacity:1;fill-rule:nonzero;stroke:none"
           transform="matrix(1,0,0,-1,0,418)"><tspan
             id="tspan264"
             y="0"
             x="0 8.0003996 15.0048 21.0012 26.997601 32.993999 35.990398 39.994801 46.999199 51.003601 54 58.004398 65.008797 69.013199 72.009598 78.005997 84.002403 88.006798">Check for “driver </tspan></text>
</g><g
         transform="translate(413.5555,-293)"
         id="g268"><text
           id="text272"
           style="font-variant:normal;font-weight:normal;font-size:12px;font-family:Roboto;-inkscape-font-specification:Roboto-Regular;writing-mode:lr-tb;fill:#ffffff;fill-opacity:1;fill-rule:nonzero;stroke:none"
           transform="matrix(1,0,0,-1,0,418)"><tspan
             id="tspan270"
             y="0"
             x="0 3 9.9960003 16.992001 22.992001 26.988001 29.988001 33.984001 39.984001 42.984001 49.98 52.98 55.98 62.976002 65.975998 72.972 79.968002">junk” (e.g. ping)</tspan></text>
</g><path
         id="path274"
         style="fill:#5b9bd5;fill-opacity:1;fill-rule:nonzero;stroke:none"
         d="m 333,138 55.9514,-1e-4 v -2 L 333,136 Z m 54.9514,1.9999 6,-3 -6,-3 z" /><g
         transform="translate(341.5533,-278)"
         id="g276"><text
           id="text280"
           style="font-variant:normal;font-weight:normal;font-size:18px;font-family:ArialMT;-inkscape-font-specification:ArialMT;writing-mode:lr-tb;fill:#000000;fill-opacity:1;fill-rule:nonzero;stroke:none"
           transform="matrix(1,0,0,-1,0,418)"><tspan
             id="tspan278"
             y="0"
             x="0 12.0006 22.003201">Yes</tspan></text>
</g><g
         transform="translate(161.8324,-223)"
         id="g282"><text
           id="text286"
           style="font-variant:normal;font-weight:normal;font-size:18px;font-family:ArialMT;-inkscape-font-specification:ArialMT;writing-mode:lr-tb;fill:#000000;fill-opacity:1;fill-rule:nonzero;stroke:none"
           transform="matrix(1,0,0,-1,0,418)"><tspan
             id="tspan284"
             y="0"
             x="0 12.9996">No</tspan></text>
</g><path
         id="path288"
         style="fill:#5b9bd5;fill-opacity:1;fill-rule:nonzero;stroke:none"
         d="m 197.6887,54.5 h 114.6227 c 15.0158,0 27.1886,-12.08831 27.1886,-27 0,-14.91169 -12.1728,-27 -27.1886,-27 H 197.6887 c -15.0159,0 -27.1887,12.08831 -27.1887,27 0,14.91169 12.1728,27 27.1887,27 z" /><g
         transform="matrix(7.874016e-5,0,0,-7.874016e-5,170.5,54.5)"
         id="g290"><path
           id="path292"
           style="fill:none;stroke:#41719c;stroke-width:12700;stroke-linecap:butt;stroke-linejoin:miter;stroke-miterlimit:8;stroke-dasharray:none;stroke-opacity:1"
           d="m 345296,0 h 1455708 c 190702,0 345296,153521.6 345296,342900 0,189378.5 -154594,342900 -345296,342900 H 345296 C 154594.3,685800 0,532278.5 0,342900 0,153521.6 154594.3,0 345296,0 Z" /></g><g
         transform="translate(232.819,-396)"
         id="g294"><text
           id="text298"
           style="font-variant:normal;font-weight:normal;font-size:18px;font-family:Roboto;-inkscape-font-specification:Roboto-Regular;writing-mode:lr-tb;fill:#ffffff;fill-opacity:1;fill-rule:nonzero;stroke:none"
           transform="matrix(1,0,0,-1,0,418)"><tspan
             id="tspan296"
             y="0"
             x="0 12.0006 22.003201 32.005798">Done</tspan></text>
</g><path
         id="path300"
         style="fill:#5b9bd5;fill-opacity:1;fill-rule:nonzero;stroke:none"
         d="m 255,96 1e-4,-36.21843 -2,-1e-5 L 253,96 Z m 2.0001,-35.21842 -3,-6.00001 -3,6 z" /><g
         transform="translate(257.4954,-349)"
         id="g302"><text
           id="text306"
           style="font-variant:normal;font-weight:normal;font-size:18px;font-family:ArialMT;-inkscape-font-specification:ArialMT;writing-mode:lr-tb;fill:#000000;fill-opacity:1;fill-rule:nonzero;stroke:none"
           transform="matrix(1,0,0,-1,0,418)"><tspan
             id="tspan304"
             y="0"
             x="0 12.9996">No</tspan></text>
</g></g></g></svg>