<?xml version="1.0" encoding="UTF-8" standalone="no"?>
<svg
   xmlns:dc="http://purl.org/dc/elements/1.1/"
   xmlns:cc="http://creativecommons.org/ns#"
   xmlns:rdf="http://www.w3.org/1999/02/22-rdf-syntax-ns#"
   xmlns:svg="http://www.w3.org/2000/svg"
   xmlns="http://www.w3.org/2000/svg"
   viewBox="0 0 756.67877 233.0256"
   height="233.0256"
   width="756.67877"
   xml:space="preserve"
   id="svg2"
   version="1.1"><metadata
     id="metadata8"><rdf:RDF><cc:Work
         rdf:about=""><dc:format>image/svg+xml</dc:format><dc:type
           rdf:resource="http://purl.org/dc/dcmitype/StillImage" /></cc:Work></rdf:RDF></metadata><defs
     id="defs6"><clipPath
       id="clipPath14"
       clipPathUnits="userSpaceOnUse"><path
         id="path12"
         d="M 0,0 H 1024 V 768 H 0 Z" /></clipPath><clipPath
       id="clipPath24"
       clipPathUnits="userSpaceOnUse"><path
         id="path22"
         d="M 0,0 H 1024 V 768 H 0 Z" /></clipPath><clipPath
       id="clipPath86"
       clipPathUnits="userSpaceOnUse"><path
         id="path84"
         d="m 281.864,535.2736 h 66.77305 v 41.33594 H 281.864 Z" /></clipPath><clipPath
       id="clipPath100"
       clipPathUnits="userSpaceOnUse"><path
         id="path98"
         d="M 0,0 H 1024 V 768 H 0 Z" /></clipPath><clipPath
       id="clipPath114"
       clipPathUnits="userSpaceOnUse"><path
         id="path112"
         d="m 348.1251,580.6193 h 35.8096 v 41.33594 h -35.8096 z" /></clipPath><clipPath
       id="clipPath128"
       clipPathUnits="userSpaceOnUse"><path
         id="path126"
         d="M 0,0 H 1024 V 768 H 0 Z" /></clipPath></defs><g
     clip-path="url(#clipPath14)"
     transform="matrix(1.3333333,0,0,-1.3333333,-309.17787,862.46693)"
     id="g10"><g
       id="g16" /><g
       id="g18"><g
         clip-path="url(#clipPath24)"
         id="g20"><path
           id="path26"
           style="fill:#ffffff;fill-opacity:1;fill-rule:nonzero;stroke:none"
           d="M 0,768 H 1024 V 0 H 0 Z" /><path
           id="path28"
           style="fill:#5e5e5e;fill-opacity:1;fill-rule:nonzero;stroke:none"
           d="m 274.9497,520.4497 c 6.3236,-6.3235 6.3236,-16.5759 0,-22.8994 -6.3235,-6.3236 -16.5759,-6.3236 -22.8994,0 -6.3236,6.3235 -6.3236,16.5759 0,22.8994 6.3235,6.3236 16.5759,6.3236 22.8994,0 z" /><path
           id="path30"
           style="fill:#5e5e5e;fill-opacity:1;fill-rule:nonzero;stroke:none"
           d="m 310.4497,520.4497 c 6.3236,-6.3235 6.3236,-16.5759 0,-22.8994 -6.3235,-6.3236 -16.5759,-6.3236 -22.8994,0 -6.3236,6.3235 -6.3236,16.5759 0,22.8994 6.3235,6.3236 16.5759,6.3236 22.8994,0 z" /><path
           id="path32"
           style="fill:#5e5e5e;fill-opacity:1;fill-rule:nonzero;stroke:none"
           d="m 345.9497,520.4497 c 6.3236,-6.3235 6.3236,-16.5759 0,-22.8994 -6.3235,-6.3236 -16.5759,-6.3236 -22.8994,0 -6.3236,6.3235 -6.3236,16.5759 0,22.8994 6.3235,6.3236 16.5759,6.3236 22.8994,0 z" /><path
           id="path34"
           style="fill:#5e5e5e;fill-opacity:1;fill-rule:nonzero;stroke:none"
           d="m 381.4497,520.4497 c 6.3236,-6.3235 6.3236,-16.5759 0,-22.8994 -6.3235,-6.3236 -16.5759,-6.3236 -22.8994,0 -6.3236,6.3235 -6.3236,16.5759 0,22.8994 6.3235,6.3236 16.5759,6.3236 22.8994,0 z" /><path
           id="path36"
           style="fill:#5e5e5e;fill-opacity:1;fill-rule:nonzero;stroke:none"
           d="m 416.9497,520.4497 c 6.3236,-6.3235 6.3236,-16.5759 0,-22.8994 -6.3235,-6.3236 -16.5759,-6.3236 -22.8994,0 -6.3236,6.3235 -6.3236,16.5759 0,22.8994 6.3235,6.3236 16.5759,6.3236 22.8994,0 z" /><path
           id="path38"
           style="fill:#5e5e5e;fill-opacity:1;fill-rule:nonzero;stroke:none"
           d="m 452.4497,520.4497 c 6.3236,-6.3235 6.3236,-16.5759 0,-22.8994 -6.3235,-6.3236 -16.5759,-6.3236 -22.8994,0 -6.3236,6.3235 -6.3236,16.5759 0,22.8994 6.3235,6.3236 16.5759,6.3236 22.8994,0 z" /><path
           id="path40"
           style="fill:#5e5e5e;fill-opacity:1;fill-rule:nonzero;stroke:none"
           d="m 487.9497,520.4497 c 6.3236,-6.3235 6.3236,-16.5759 0,-22.8994 -6.3235,-6.3236 -16.5759,-6.3236 -22.8994,0 -6.3236,6.3235 -6.3236,16.5759 0,22.8994 6.3235,6.3236 16.5759,6.3236 22.8994,0 z" /><path
           id="path42"
           style="fill:#5e5e5e;fill-opacity:1;fill-rule:nonzero;stroke:none"
           d="m 523.4497,520.4497 c 6.3236,-6.3235 6.3236,-16.5759 0,-22.8994 -6.3235,-6.3236 -16.5759,-6.3236 -22.8994,0 -6.3236,6.3235 -6.3236,16.5759 0,22.8994 6.3235,6.3236 16.5759,6.3236 22.8994,0 z" /><path
           id="path44"
           style="fill:#5e5e5e;fill-opacity:1;fill-rule:nonzero;stroke:none"
           d="m 558.9497,520.4497 c 6.3236,-6.3235 6.3236,-16.5759 0,-22.8994 -6.3235,-6.3236 -16.5759,-6.3236 -22.8994,0 -6.3236,6.3235 -6.3236,16.5759 0,22.8994 6.3235,6.3236 16.5759,6.3236 22.8994,0 z" /><path
           id="path46"
           style="fill:#5e5e5e;fill-opacity:1;fill-rule:nonzero;stroke:none"
           d="m 594.4497,520.4497 c 6.3236,-6.3235 6.3236,-16.5759 0,-22.8994 -6.3235,-6.3236 -16.5759,-6.3236 -22.8994,0 -6.3236,6.3235 -6.3236,16.5759 0,22.8994 6.3235,6.3236 16.5759,6.3236 22.8994,0 z" /><path
           id="path48"
           style="fill:#5e5e5e;fill-opacity:1;fill-rule:nonzero;stroke:none"
           d="m 629.9497,520.4497 c 6.3236,-6.3235 6.3236,-16.5759 0,-22.8994 -6.3235,-6.3236 -16.5759,-6.3236 -22.8994,0 -6.3236,6.3235 -6.3236,16.5759 0,22.8994 6.3235,6.3236 16.5759,6.3236 22.8994,0 z" /><path
           id="path50"
           style="fill:#5e5e5e;fill-opacity:1;fill-rule:nonzero;stroke:none"
           d="m 665.4497,520.4497 c 6.3236,-6.3235 6.3236,-16.5759 0,-22.8994 -6.3235,-6.3236 -16.5759,-6.3236 -22.8994,0 -6.3236,6.3235 -6.3236,16.5759 0,22.8994 6.3235,6.3236 16.5759,6.3236 22.8994,0 z" /><path
           id="path52"
           style="fill:#5e5e5e;fill-opacity:1;fill-rule:nonzero;stroke:none"
           d="m 700.9497,520.4497 c 6.3236,-6.3235 6.3236,-16.5759 0,-22.8994 -6.3235,-6.3236 -16.5759,-6.3236 -22.8994,0 -6.3236,6.3235 -6.3236,16.5759 0,22.8994 6.3235,6.3236 16.5759,6.3236 22.8994,0 z" /><path
           id="path54"
           style="fill:#5e5e5e;fill-opacity:1;fill-rule:nonzero;stroke:none"
           d="m 736.4497,520.4497 c 6.3236,-6.3235 6.3236,-16.5759 0,-22.8994 -6.3235,-6.3236 -16.5759,-6.3236 -22.8994,0 -6.3236,6.3235 -6.3236,16.5759 0,22.8994 6.3235,6.3236 16.5759,6.3236 22.8994,0 z" /><path
           id="path56"
           style="fill:#5e5e5e;fill-opacity:1;fill-rule:nonzero;stroke:none"
           d="m 771.9497,520.4497 c 6.3236,-6.3235 6.3236,-16.5759 0,-22.8994 -6.3235,-6.3236 -16.5759,-6.3236 -22.8994,0 -6.3236,6.3235 -6.3236,16.5759 0,22.8994 6.3235,6.3236 16.5759,6.3236 22.8994,0 z" /><g
           transform="matrix(1,0,0,-1,243.3555,528.668)"
           id="g58"><path
             id="path60"
             style="fill:none;stroke:#5e5e5e;stroke-width:4;stroke-linecap:butt;stroke-linejoin:miter;stroke-miterlimit:4;stroke-dasharray:none;stroke-opacity:1"
             d="M 19.66797,0 H 517.2813 c 0,0 0,0 0,0 10.8623,0 19.6679,8.80565 19.6679,19.66797 0,0 0,0 0,0 0,0 0,0 0,0 0,10.86232 -8.8056,19.66797 -19.6679,19.66797 0,0 0,0 0,0 H 19.66797 c 0,0 0,0 0,0 C 8.80565,39.33594 0,30.53029 0,19.66797 c 0,0 0,0 0,0 0,0 0,0 0,0 C 0,8.80565 8.80565,0 19.66797,0 c 0,0 0,0 0,0 z" /></g><g
           transform="matrix(0.7071068,-0.7071068,-0.7071068,-0.7071068,769.5888,543.2709)"
           id="g62"><path
             id="path64"
             style="fill:none;stroke:#5e5e5e;stroke-width:2;stroke-linecap:butt;stroke-linejoin:miter;stroke-miterlimit:4;stroke-dasharray:none;stroke-opacity:1"
             d="M 0,7.272459 C 4.537044,2.680718 10.70414,0.06693012 17.15894,2.179252e-5 22.24687,-0.05271812 27.14343,1.452993 31.25014,4.202443 L 31.958,4.908801" /></g><path
           id="path66"
           style="fill:#5e5e5e;fill-opacity:1;fill-rule:nonzero;stroke:none"
           d="m 783.9145,518.197 4.8101,-9.5949 4.7898,9.6051 z" /><path
           id="path68"
           style="fill:#d6d5d5;fill-opacity:1;fill-rule:nonzero;stroke:none"
           d="m 349.2159,577.6096 h 64.5914 v -43.336 h -64.5914 z" /><g
           transform="matrix(1,0,0,-1,349.2159,577.6096)"
           id="g70"><path
             id="path72"
             style="fill:none;stroke:#000000;stroke-width:1;stroke-linecap:butt;stroke-linejoin:miter;stroke-miterlimit:4;stroke-dasharray:none;stroke-opacity:1"
             d="M 0,0 H 64.59141 V 43.33594 H 0 Z" /></g><path
           id="path74"
           style="fill:#d6d5d5;fill-opacity:1;fill-rule:nonzero;stroke:none"
           d="m 282.9548,577.6096 h 64.5914 v -43.336 h -64.5914 z" /><g
           transform="matrix(1,0,0,-1,282.9548,577.6096)"
           id="g76"><path
             id="path78"
             style="fill:none;stroke:#000000;stroke-width:1;stroke-linecap:butt;stroke-linejoin:miter;stroke-miterlimit:4;stroke-dasharray:none;stroke-opacity:1"
             d="M 0,0 H 64.59141 V 43.33594 H 0 Z" /></g></g></g><g
       id="g80"><g
         clip-path="url(#clipPath86)"
         id="g82"><g
           transform="translate(310,548)"
           id="g88"><text
             id="text92"
             style="font-style:italic;font-variant:normal;font-size:22px;font-family:TimesNewRomanPS;-inkscape-font-specification:TimesNewRomanPS-ItalicMT;writing-mode:lr-tb;fill:#000000;fill-opacity:1;fill-rule:nonzero;stroke:none"
             transform="scale(1,-1)"><tspan
               id="tspan90"
               y="0"
               x="0">S</tspan></text>
</g></g></g><g
       id="g94"><g
         clip-path="url(#clipPath100)"
         id="g96"><path
           id="path102"
           style="fill:#ee220c;fill-opacity:1;fill-rule:nonzero;stroke:none"
           d="m 349.2159,622.9552 h 33.628 v -43.3359 h -33.628 z" /><g
           transform="matrix(1,0,0,-1,349.2159,622.9552)"
           id="g104"><path
             id="path106"
             style="fill:none;stroke:#000000;stroke-width:1;stroke-linecap:butt;stroke-linejoin:miter;stroke-miterlimit:4;stroke-dasharray:none;stroke-opacity:1"
             d="M 0,0 H 33.62796 V 43.33594 H 0 Z" /></g></g></g><g
       id="g108"><g
         clip-path="url(#clipPath114)"
         id="g110"><g
           transform="translate(357,594)"
           id="g116"><text
             id="text120"
             style="font-style:italic;font-variant:normal;font-size:22px;font-family:TimesNewRomanPS;-inkscape-font-specification:TimesNewRomanPS-ItalicMT;writing-mode:lr-tb;fill:#000000;fill-opacity:1;fill-rule:nonzero;stroke:none"
             transform="scale(1,-1)"><tspan
               id="tspan118"
               y="0"
               x="0">W</tspan></text>
</g></g></g><g
       id="g122"><g
         clip-path="url(#clipPath128)"
         id="g124"><g
           transform="translate(325,624)"
           id="g130"><text
             id="text134"
             style="font-style:italic;font-variant:normal;font-size:24px;font-family:TimesNewRomanPS;-inkscape-font-specification:TimesNewRomanPS-ItalicMT;writing-mode:lr-tb;fill:#000000;fill-opacity:1;fill-rule:nonzero;stroke:none"
             transform="scale(1,-1)"><tspan
               id="tspan132"
               y="0"
               x="0">R</tspan></text>
</g><g
           transform="matrix(1,0,0,-1,343.3892,631.4923)"
           id="g136"><path
             id="path138"
             style="fill:none;stroke:#000000;stroke-width:2;stroke-linecap:butt;stroke-linejoin:miter;stroke-miterlimit:4;stroke-dasharray:none;stroke-opacity:1"
             d="m 0,0 h 31.87805 1" /></g><path
           id="path140"
           style="fill:#000000;fill-opacity:1;fill-rule:nonzero;stroke:none"
           d="m 375.2672,626.6923 9.6,4.8 -9.6,4.8 z" /><g
           transform="matrix(1,0,0,-1,282.7554,631.4923)"
           id="g142"><path
             id="path144"
             style="fill:none;stroke:#000000;stroke-width:2;stroke-linecap:butt;stroke-linejoin:miter;stroke-miterlimit:4;stroke-dasharray:none;stroke-opacity:1"
             d="m 8.6,0 h 1 31.87805" /></g><path
           id="path146"
           style="fill:#000000;fill-opacity:1;fill-rule:nonzero;stroke:none"
           d="m 292.3554,636.2923 -9.6,-4.8 9.6,-4.8 z" /></g></g></g></svg>