<?xml version="1.0" encoding="utf-8"?>
<svg viewBox="0 0 768.40466 189.70959" height="189.70959" width="768.40466" id="svg2" version="1.1" xmlns="http://www.w3.org/2000/svg">
  <defs id="defs6">
    <clipPath id="clipPath14" clipPathUnits="userSpaceOnUse">
      <path id="path12" d="M 0,0 H 1024 V 768 H 0 Z"/>
    </clipPath>
    <clipPath id="clipPath24" clipPathUnits="userSpaceOnUse">
      <path id="path22" d="M 0,0 H 1024 V 768 H 0 Z"/>
    </clipPath>
  </defs>
  <g clip-path="url(#clipPath14)" transform="matrix(1.3333333,0,0,-1.3333333,-304.34907,789.09373)" id="g10">
    <g id="g16"/>
    <g id="g18">
      <g clip-path="url(#clipPath24)" id="g20">
        <path id="path26" style="fill:#ffffff;fill-opacity:1;fill-rule:nonzero;stroke:none" d="M 0,768 H 1024 V 0 H 0 Z"/>
        <path id="path28" style="fill:#5e5e5e;fill-opacity:1;fill-rule:nonzero;stroke:none" d="m 274.9497,520.4497 c 6.3236,-6.3235 6.3236,-16.5759 0,-22.8994 -6.3235,-6.3236 -16.5759,-6.3236 -22.8994,0 -6.3236,6.3235 -6.3236,16.5759 0,22.8994 6.3235,6.3236 16.5759,6.3236 22.8994,0 z"/>
        <path id="path30" style="fill:#5e5e5e;fill-opacity:1;fill-rule:nonzero;stroke:none" d="m 310.4497,520.4497 c 6.3236,-6.3235 6.3236,-16.5759 0,-22.8994 -6.3235,-6.3236 -16.5759,-6.3236 -22.8994,0 -6.3236,6.3235 -6.3236,16.5759 0,22.8994 6.3235,6.3236 16.5759,6.3236 22.8994,0 z"/>
        <path id="path32" style="fill:#5e5e5e;fill-opacity:1;fill-rule:nonzero;stroke:none" d="m 345.9497,520.4497 c 6.3236,-6.3235 6.3236,-16.5759 0,-22.8994 -6.3235,-6.3236 -16.5759,-6.3236 -22.8994,0 -6.3236,6.3235 -6.3236,16.5759 0,22.8994 6.3235,6.3236 16.5759,6.3236 22.8994,0 z"/>
        <path id="path34" style="fill:#5e5e5e;fill-opacity:1;fill-rule:nonzero;stroke:none" d="m 381.4497,520.4497 c 6.3236,-6.3235 6.3236,-16.5759 0,-22.8994 -6.3235,-6.3236 -16.5759,-6.3236 -22.8994,0 -6.3236,6.3235 -6.3236,16.5759 0,22.8994 6.3235,6.3236 16.5759,6.3236 22.8994,0 z"/>
        <path id="path36" style="fill:#5e5e5e;fill-opacity:1;fill-rule:nonzero;stroke:none" d="m 416.9497,520.4497 c 6.3236,-6.3235 6.3236,-16.5759 0,-22.8994 -6.3235,-6.3236 -16.5759,-6.3236 -22.8994,0 -6.3236,6.3235 -6.3236,16.5759 0,22.8994 6.3235,6.3236 16.5759,6.3236 22.8994,0 z"/>
        <path id="path38" style="fill:#5e5e5e;fill-opacity:1;fill-rule:nonzero;stroke:none" d="m 452.4497,520.4497 c 6.3236,-6.3235 6.3236,-16.5759 0,-22.8994 -6.3235,-6.3236 -16.5759,-6.3236 -22.8994,0 -6.3236,6.3235 -6.3236,16.5759 0,22.8994 6.3235,6.3236 16.5759,6.3236 22.8994,0 z"/>
        <path id="path40" style="fill:#5e5e5e;fill-opacity:1;fill-rule:nonzero;stroke:none" d="m 487.9497,520.4497 c 6.3236,-6.3235 6.3236,-16.5759 0,-22.8994 -6.3235,-6.3236 -16.5759,-6.3236 -22.8994,0 -6.3236,6.3235 -6.3236,16.5759 0,22.8994 6.3235,6.3236 16.5759,6.3236 22.8994,0 z"/>
        <path id="path42" style="fill:#5e5e5e;fill-opacity:1;fill-rule:nonzero;stroke:none" d="m 523.4497,520.4497 c 6.3236,-6.3235 6.3236,-16.5759 0,-22.8994 -6.3235,-6.3236 -16.5759,-6.3236 -22.8994,0 -6.3236,6.3235 -6.3236,16.5759 0,22.8994 6.3235,6.3236 16.5759,6.3236 22.8994,0 z"/>
        <path id="path44" style="fill:#5e5e5e;fill-opacity:1;fill-rule:nonzero;stroke:none" d="m 558.9497,520.4497 c 6.3236,-6.3235 6.3236,-16.5759 0,-22.8994 -6.3235,-6.3236 -16.5759,-6.3236 -22.8994,0 -6.3236,6.3235 -6.3236,16.5759 0,22.8994 6.3235,6.3236 16.5759,6.3236 22.8994,0 z"/>
        <path id="path46" style="fill:#5e5e5e;fill-opacity:1;fill-rule:nonzero;stroke:none" d="m 594.4497,520.4497 c 6.3236,-6.3235 6.3236,-16.5759 0,-22.8994 -6.3235,-6.3236 -16.5759,-6.3236 -22.8994,0 -6.3236,6.3235 -6.3236,16.5759 0,22.8994 6.3235,6.3236 16.5759,6.3236 22.8994,0 z"/>
        <path id="path48" style="fill:#5e5e5e;fill-opacity:1;fill-rule:nonzero;stroke:none" d="m 629.9497,520.4497 c 6.3236,-6.3235 6.3236,-16.5759 0,-22.8994 -6.3235,-6.3236 -16.5759,-6.3236 -22.8994,0 -6.3236,6.3235 -6.3236,16.5759 0,22.8994 6.3235,6.3236 16.5759,6.3236 22.8994,0 z"/>
        <path id="path50" style="fill:#5e5e5e;fill-opacity:1;fill-rule:nonzero;stroke:none" d="m 665.4497,520.4497 c 6.3236,-6.3235 6.3236,-16.5759 0,-22.8994 -6.3235,-6.3236 -16.5759,-6.3236 -22.8994,0 -6.3236,6.3235 -6.3236,16.5759 0,22.8994 6.3235,6.3236 16.5759,6.3236 22.8994,0 z"/>
        <path id="path52" style="fill:#5e5e5e;fill-opacity:1;fill-rule:nonzero;stroke:none" d="m 700.9497,520.4497 c 6.3236,-6.3235 6.3236,-16.5759 0,-22.8994 -6.3235,-6.3236 -16.5759,-6.3236 -22.8994,0 -6.3236,6.3235 -6.3236,16.5759 0,22.8994 6.3235,6.3236 16.5759,6.3236 22.8994,0 z"/>
        <path id="path54" style="fill:#5e5e5e;fill-opacity:1;fill-rule:nonzero;stroke:none" d="m 736.4497,520.4497 c 6.3236,-6.3235 6.3236,-16.5759 0,-22.8994 -6.3235,-6.3236 -16.5759,-6.3236 -22.8994,0 -6.3236,6.3235 -6.3236,16.5759 0,22.8994 6.3235,6.3236 16.5759,6.3236 22.8994,0 z"/>
        <path id="path56" style="fill:#5e5e5e;fill-opacity:1;fill-rule:nonzero;stroke:none" d="m 771.9497,520.4497 c 6.3236,-6.3235 6.3236,-16.5759 0,-22.8994 -6.3235,-6.3236 -16.5759,-6.3236 -22.8994,0 -6.3236,6.3235 -6.3236,16.5759 0,22.8994 6.3235,6.3236 16.5759,6.3236 22.8994,0 z"/>
        <g transform="matrix(1,0,0,-1,243.3555,528.668)" id="g58">
          <path id="path60" style="fill:none;stroke:#5e5e5e;stroke-width:4;stroke-linecap:butt;stroke-linejoin:miter;stroke-miterlimit:4;stroke-dasharray:none;stroke-opacity:1" d="M 19.66797,0 H 517.2813 c 0,0 0,0 0,0 10.8623,0 19.6679,8.80565 19.6679,19.66797 0,0 0,0 0,0 0,0 0,0 0,0 0,10.86232 -8.8056,19.66797 -19.6679,19.66797 0,0 0,0 0,0 H 19.66797 c 0,0 0,0 0,0 C 8.80565,39.33594 0,30.53029 0,19.66797 c 0,0 0,0 0,0 0,0 0,0 0,0 C 0,8.80565 8.80565,0 19.66797,0 c 0,0 0,0 0,0 z"/>
        </g>
        <g transform="matrix(0.7071068,-0.7071068,-0.7071068,-0.7071068,769.5889,543.2708)" id="g62">
          <path id="path64" style="fill:none;stroke:#5e5e5e;stroke-width:2;stroke-linecap:butt;stroke-linejoin:miter;stroke-miterlimit:4;stroke-dasharray:none;stroke-opacity:1" d="M 0,7.272459 C 4.537044,2.680718 10.70414,0.06693011 17.15894,2.179252e-5 22.24687,-0.05271812 27.14343,1.452993 31.25014,4.202443 L 31.958,4.908801"/>
        </g>
        <path id="path66" style="fill:#5e5e5e;fill-opacity:1;fill-rule:nonzero;stroke:none" d="m 783.9145,518.197 4.8101,-9.5949 4.7899,9.6051 z"/>
        <path id="path68" style="fill:#d6d5d5;fill-opacity:1;fill-rule:nonzero;stroke:none" d="m 312.6251,577.6096 h 64.5914 v -43.336 h -64.5914 z"/>
        <g transform="matrix(1,0,0,-1,312.6251,577.6096)" id="g70">
          <path id="path72" style="fill:none;stroke:#000000;stroke-width:1;stroke-linecap:butt;stroke-linejoin:miter;stroke-miterlimit:4;stroke-dasharray:none;stroke-opacity:1" d="M 0,0 H 64.59141 V 43.33594 H 0 Z"/>
        </g>
        <path id="path74" style="fill:#d6d5d5;fill-opacity:1;fill-rule:nonzero;stroke:none" d="m 378.9064,577.6096 h 64.5914 v -43.336 h -64.5914 z"/>
        <g transform="matrix(1,0,0,-1,378.9064,577.6096)" id="g76">
          <path id="path78" style="fill:none;stroke:#000000;stroke-width:1;stroke-linecap:butt;stroke-linejoin:miter;stroke-miterlimit:4;stroke-dasharray:none;stroke-opacity:1" d="M 0,0 H 64.59141 V 43.33594 H 0 Z"/>
        </g>
        <path id="path80" style="fill:#d6d5d5;fill-opacity:1;fill-rule:nonzero;stroke:none" d="m 445.1877,577.6096 h 64.5914 v -43.336 h -64.5914 z"/>
        <g transform="matrix(1,0,0,-1,445.1877,577.6096)" id="g82">
          <path id="path84" style="fill:none;stroke:#000000;stroke-width:1;stroke-linecap:butt;stroke-linejoin:miter;stroke-miterlimit:4;stroke-dasharray:none;stroke-opacity:1" d="M 0,0 H 64.59141 V 43.33594 H 0 Z"/>
        </g>
        <path id="path86" style="fill:#d6d5d5;fill-opacity:1;fill-rule:nonzero;stroke:none" d="m 511.4689,577.6096 h 64.5914 v -43.336 h -64.5914 z"/>
        <g transform="matrix(1,0,0,-1,511.4689,577.6096)" id="g88">
          <path id="path90" style="fill:none;stroke:#000000;stroke-width:1;stroke-linecap:butt;stroke-linejoin:miter;stroke-miterlimit:4;stroke-dasharray:none;stroke-opacity:1" d="M 0,0 H 64.59141 V 43.33594 H 0 Z"/>
        </g>
        <path id="path92" style="fill:#d6d5d5;fill-opacity:1;fill-rule:nonzero;stroke:none" d="m 577.7502,577.6096 h 64.5914 v -43.336 h -64.5914 z"/>
        <g transform="matrix(1,0,0,-1,577.7502,577.6096)" id="g94">
          <path id="path96" style="fill:none;stroke:#000000;stroke-width:1;stroke-linecap:butt;stroke-linejoin:miter;stroke-miterlimit:4;stroke-dasharray:none;stroke-opacity:1" d="M 0,0 H 64.59141 V 43.33594 H 0 Z"/>
        </g>
        <path id="path98" style="fill:#d6d5d5;fill-opacity:1;fill-rule:nonzero;stroke:none" d="m 644.0315,577.6096 h 64.5914 v -43.336 h -64.5914 z"/>
        <g transform="matrix(1,0,0,-1,644.0315,577.6096)" id="g100">
          <path id="path102" style="fill:none;stroke:#000000;stroke-width:1;stroke-linecap:butt;stroke-linejoin:miter;stroke-miterlimit:4;stroke-dasharray:none;stroke-opacity:1" d="M 0,0 H 64.59141 V 43.33594 H 0 Z"/>
        </g>
        <g transform="matrix(1,0,0,-1,524.1562,470.9757)" id="g104">
          <path id="path106" style="fill:none;stroke:#000000;stroke-width:2;stroke-linecap:butt;stroke-linejoin:miter;stroke-miterlimit:4;stroke-dasharray:none;stroke-opacity:1" d="m 0,0 h 179.0876 1"/>
        </g>
        <path id="path108" style="fill:#000000;fill-opacity:1;fill-rule:nonzero;stroke:none" d="m 703.2438,466.1757 9.6,4.8 -9.6,4.8 z"/>
        <g transform="translate(505,464)" id="g110">
          <text id="text114" style="font-variant-ligatures: normal; font-style: italic; font-variant-caps: normal; font-weight: normal; font-size: 24px; font-family: STIXGeneral; writing-mode: lr-tb; fill: rgb(0, 0, 0); fill-opacity: 1; fill-rule: nonzero; stroke: none; white-space: pre;" transform="scale(1,-1)"><tspan id="tspan112" y="0" x="0">T</tspan></text>
        </g>
        <g transform="matrix(1,0,0,-1,311.1562,470.9757)" id="g116">
          <path id="path118" style="fill:none;stroke:#000000;stroke-width:2;stroke-linecap:butt;stroke-linejoin:miter;stroke-miterlimit:4;stroke-dasharray:none;stroke-opacity:1" d="m 8.6,0 h 1 179.0876"/>
        </g>
        <path id="path120" style="fill:#000000;fill-opacity:1;fill-rule:nonzero;stroke:none" d="m 320.7562,475.7757 -9.6,-4.8 9.6,-4.8 z"/>
      </g>
    </g>
  </g>
</svg>