<?xml version="1.0" encoding="UTF-8" standalone="no"?>
<svg
   xmlns:dc="http://purl.org/dc/elements/1.1/"
   xmlns:cc="http://creativecommons.org/ns#"
   xmlns:rdf="http://www.w3.org/1999/02/22-rdf-syntax-ns#"
   xmlns:svg="http://www.w3.org/2000/svg"
   xmlns="http://www.w3.org/2000/svg"
   viewBox="0 0 751.64532 263.22653"
   height="263.22653"
   width="751.64532"
   xml:space="preserve"
   id="svg2"
   version="1.1"><metadata
     id="metadata8"><rdf:RDF><cc:Work
         rdf:about=""><dc:format>image/svg+xml</dc:format><dc:type
           rdf:resource="http://purl.org/dc/dcmitype/StillImage" /></cc:Work></rdf:RDF></metadata><defs
     id="defs6"><clipPath
       id="clipPath14"
       clipPathUnits="userSpaceOnUse"><path
         id="path12"
         d="M 0,0 H 1024 V 768 H 0 Z" /></clipPath><clipPath
       id="clipPath24"
       clipPathUnits="userSpaceOnUse"><path
         id="path22"
         d="M 0,0 H 1024 V 768 H 0 Z" /></clipPath><clipPath
       id="clipPath80"
       clipPathUnits="userSpaceOnUse"><path
         id="path78"
         d="m 348.1251,534.3935 h 66.77305 v 41.33594 H 348.1251 Z" /></clipPath><clipPath
       id="clipPath94"
       clipPathUnits="userSpaceOnUse"><path
         id="path92"
         d="M 0,0 H 1024 V 768 H 0 Z" /></clipPath><clipPath
       id="clipPath108"
       clipPathUnits="userSpaceOnUse"><path
         id="path106"
         d="m 281.864,534.3935 h 66.77305 v 41.33594 H 281.864 Z" /></clipPath><clipPath
       id="clipPath122"
       clipPathUnits="userSpaceOnUse"><path
         id="path120"
         d="M 0,0 H 1024 V 768 H 0 Z" /></clipPath><clipPath
       id="clipPath136"
       clipPathUnits="userSpaceOnUse"><path
         id="path134"
         d="m 348.1251,580.6192 h 35.8096 v 41.33594 h -35.8096 z" /></clipPath><clipPath
       id="clipPath150"
       clipPathUnits="userSpaceOnUse"><path
         id="path148"
         d="M 0,0 H 1024 V 768 H 0 Z" /></clipPath><clipPath
       id="clipPath164"
       clipPathUnits="userSpaceOnUse"><path
         id="path162"
         d="m 618.244,534.3935 h 66.77305 v 41.33594 H 618.244 Z" /></clipPath><clipPath
       id="clipPath178"
       clipPathUnits="userSpaceOnUse"><path
         id="path176"
         d="M 0,0 H 1024 V 768 H 0 Z" /></clipPath><clipPath
       id="clipPath192"
       clipPathUnits="userSpaceOnUse"><path
         id="path190"
         d="m 551.9829,534.3935 h 66.77305 v 41.33594 H 551.9829 Z" /></clipPath><clipPath
       id="clipPath206"
       clipPathUnits="userSpaceOnUse"><path
         id="path204"
         d="M 0,0 H 1024 V 768 H 0 Z" /></clipPath><clipPath
       id="clipPath220"
       clipPathUnits="userSpaceOnUse"><path
         id="path218"
         d="m 618.244,579.7391 h 35.8096 v 41.33594 H 618.244 Z" /></clipPath><clipPath
       id="clipPath234"
       clipPathUnits="userSpaceOnUse"><path
         id="path232"
         d="M 0,0 H 1024 V 768 H 0 Z" /></clipPath><clipPath
       id="clipPath248"
       clipPathUnits="userSpaceOnUse"><path
         id="path246"
         d="m 486.1846,534.3935 h 66.77305 v 41.33594 H 486.1846 Z" /></clipPath><clipPath
       id="clipPath262"
       clipPathUnits="userSpaceOnUse"><path
         id="path260"
         d="M 0,0 H 1024 V 768 H 0 Z" /></clipPath><clipPath
       id="clipPath276"
       clipPathUnits="userSpaceOnUse"><path
         id="path274"
         d="m 552.5354,625.0847 h 76.69685 v 41.33594 H 552.5354 Z" /></clipPath></defs><g
     clip-path="url(#clipPath14)"
     transform="matrix(1.3333333,0,0,-1.3333333,-311.99507,899.086)"
     id="g10"><g
       id="g16" /><g
       id="g18"><g
         clip-path="url(#clipPath24)"
         id="g20"><path
           id="path26"
           style="fill:#ffffff;fill-opacity:1;fill-rule:nonzero;stroke:none"
           d="M 0,768 H 1024 V 0 H 0 Z" /><path
           id="path28"
           style="fill:#5e5e5e;fill-opacity:1;fill-rule:nonzero;stroke:none"
           d="m 274.9497,520.4497 c 6.3236,-6.3235 6.3236,-16.5759 0,-22.8994 -6.3235,-6.3236 -16.5759,-6.3236 -22.8994,0 -6.3236,6.3235 -6.3236,16.5759 0,22.8994 6.3235,6.3236 16.5759,6.3236 22.8994,0 z" /><path
           id="path30"
           style="fill:#5e5e5e;fill-opacity:1;fill-rule:nonzero;stroke:none"
           d="m 310.4497,520.4497 c 6.3236,-6.3235 6.3236,-16.5759 0,-22.8994 -6.3235,-6.3236 -16.5759,-6.3236 -22.8994,0 -6.3236,6.3235 -6.3236,16.5759 0,22.8994 6.3235,6.3236 16.5759,6.3236 22.8994,0 z" /><path
           id="path32"
           style="fill:#5e5e5e;fill-opacity:1;fill-rule:nonzero;stroke:none"
           d="m 345.9497,520.4497 c 6.3236,-6.3235 6.3236,-16.5759 0,-22.8994 -6.3235,-6.3236 -16.5759,-6.3236 -22.8994,0 -6.3236,6.3235 -6.3236,16.5759 0,22.8994 6.3235,6.3236 16.5759,6.3236 22.8994,0 z" /><path
           id="path34"
           style="fill:#5e5e5e;fill-opacity:1;fill-rule:nonzero;stroke:none"
           d="m 381.4497,520.4497 c 6.3236,-6.3235 6.3236,-16.5759 0,-22.8994 -6.3235,-6.3236 -16.5759,-6.3236 -22.8994,0 -6.3236,6.3235 -6.3236,16.5759 0,22.8994 6.3235,6.3236 16.5759,6.3236 22.8994,0 z" /><path
           id="path36"
           style="fill:#5e5e5e;fill-opacity:1;fill-rule:nonzero;stroke:none"
           d="m 416.9497,520.4497 c 6.3236,-6.3235 6.3236,-16.5759 0,-22.8994 -6.3235,-6.3236 -16.5759,-6.3236 -22.8994,0 -6.3236,6.3235 -6.3236,16.5759 0,22.8994 6.3235,6.3236 16.5759,6.3236 22.8994,0 z" /><path
           id="path38"
           style="fill:#5e5e5e;fill-opacity:1;fill-rule:nonzero;stroke:none"
           d="m 452.4497,520.4497 c 6.3236,-6.3235 6.3236,-16.5759 0,-22.8994 -6.3235,-6.3236 -16.5759,-6.3236 -22.8994,0 -6.3236,6.3235 -6.3236,16.5759 0,22.8994 6.3235,6.3236 16.5759,6.3236 22.8994,0 z" /><path
           id="path40"
           style="fill:#5e5e5e;fill-opacity:1;fill-rule:nonzero;stroke:none"
           d="m 487.9497,520.4497 c 6.3236,-6.3235 6.3236,-16.5759 0,-22.8994 -6.3235,-6.3236 -16.5759,-6.3236 -22.8994,0 -6.3236,6.3235 -6.3236,16.5759 0,22.8994 6.3235,6.3236 16.5759,6.3236 22.8994,0 z" /><path
           id="path42"
           style="fill:#5e5e5e;fill-opacity:1;fill-rule:nonzero;stroke:none"
           d="m 523.4497,520.4497 c 6.3236,-6.3235 6.3236,-16.5759 0,-22.8994 -6.3235,-6.3236 -16.5759,-6.3236 -22.8994,0 -6.3236,6.3235 -6.3236,16.5759 0,22.8994 6.3235,6.3236 16.5759,6.3236 22.8994,0 z" /><path
           id="path44"
           style="fill:#5e5e5e;fill-opacity:1;fill-rule:nonzero;stroke:none"
           d="m 558.9497,520.4497 c 6.3236,-6.3235 6.3236,-16.5759 0,-22.8994 -6.3235,-6.3236 -16.5759,-6.3236 -22.8994,0 -6.3236,6.3235 -6.3236,16.5759 0,22.8994 6.3235,6.3236 16.5759,6.3236 22.8994,0 z" /><path
           id="path46"
           style="fill:#5e5e5e;fill-opacity:1;fill-rule:nonzero;stroke:none"
           d="m 594.4497,520.4497 c 6.3236,-6.3235 6.3236,-16.5759 0,-22.8994 -6.3235,-6.3236 -16.5759,-6.3236 -22.8994,0 -6.3236,6.3235 -6.3236,16.5759 0,22.8994 6.3235,6.3236 16.5759,6.3236 22.8994,0 z" /><path
           id="path48"
           style="fill:#5e5e5e;fill-opacity:1;fill-rule:nonzero;stroke:none"
           d="m 629.9497,520.4497 c 6.3236,-6.3235 6.3236,-16.5759 0,-22.8994 -6.3235,-6.3236 -16.5759,-6.3236 -22.8994,0 -6.3236,6.3235 -6.3236,16.5759 0,22.8994 6.3235,6.3236 16.5759,6.3236 22.8994,0 z" /><path
           id="path50"
           style="fill:#5e5e5e;fill-opacity:1;fill-rule:nonzero;stroke:none"
           d="m 665.4497,520.4497 c 6.3236,-6.3235 6.3236,-16.5759 0,-22.8994 -6.3235,-6.3236 -16.5759,-6.3236 -22.8994,0 -6.3236,6.3235 -6.3236,16.5759 0,22.8994 6.3235,6.3236 16.5759,6.3236 22.8994,0 z" /><path
           id="path52"
           style="fill:#5e5e5e;fill-opacity:1;fill-rule:nonzero;stroke:none"
           d="m 700.9497,520.4497 c 6.3236,-6.3235 6.3236,-16.5759 0,-22.8994 -6.3235,-6.3236 -16.5759,-6.3236 -22.8994,0 -6.3236,6.3235 -6.3236,16.5759 0,22.8994 6.3235,6.3236 16.5759,6.3236 22.8994,0 z" /><path
           id="path54"
           style="fill:#5e5e5e;fill-opacity:1;fill-rule:nonzero;stroke:none"
           d="m 736.4497,520.4497 c 6.3236,-6.3235 6.3236,-16.5759 0,-22.8994 -6.3235,-6.3236 -16.5759,-6.3236 -22.8994,0 -6.3236,6.3235 -6.3236,16.5759 0,22.8994 6.3235,6.3236 16.5759,6.3236 22.8994,0 z" /><path
           id="path56"
           style="fill:#5e5e5e;fill-opacity:1;fill-rule:nonzero;stroke:none"
           d="m 771.9497,520.4497 c 6.3236,-6.3235 6.3236,-16.5759 0,-22.8994 -6.3235,-6.3236 -16.5759,-6.3236 -22.8994,0 -6.3236,6.3235 -6.3236,16.5759 0,22.8994 6.3235,6.3236 16.5759,6.3236 22.8994,0 z" /><g
           transform="matrix(1,0,0,-1,243.3555,528.668)"
           id="g58"><path
             id="path60"
             style="fill:none;stroke:#5e5e5e;stroke-width:4;stroke-linecap:butt;stroke-linejoin:miter;stroke-miterlimit:4;stroke-dasharray:none;stroke-opacity:1"
             d="M 19.66797,0 H 517.2813 c 0,0 0,0 0,0 10.8623,0 19.6679,8.80565 19.6679,19.66797 0,0 0,0 0,0 0,0 0,0 0,0 0,10.86232 -8.8056,19.66797 -19.6679,19.66797 0,0 0,0 0,0 H 19.66797 c 0,0 0,0 0,0 C 8.80565,39.33594 0,30.53029 0,19.66797 c 0,0 0,0 0,0 0,0 0,0 0,0 C 0,8.80565 8.80565,0 19.66797,0 c 0,0 0,0 0,0 z" /></g><g
           transform="matrix(0.7071068,-0.7071068,-0.7071068,-0.7071068,769.5888,543.2709)"
           id="g62"><path
             id="path64"
             style="fill:none;stroke:#5e5e5e;stroke-width:2;stroke-linecap:butt;stroke-linejoin:miter;stroke-miterlimit:4;stroke-dasharray:none;stroke-opacity:1"
             d="M 0,7.272459 C 4.537044,2.680718 10.70414,0.06693012 17.15894,2.179252e-5 22.24687,-0.05271812 27.14343,1.452993 31.25014,4.202443 L 31.958,4.908801" /></g><path
           id="path66"
           style="fill:#5e5e5e;fill-opacity:1;fill-rule:nonzero;stroke:none"
           d="m 783.9145,518.197 4.8101,-9.5949 4.7898,9.6051 z" /><path
           id="path68"
           style="fill:#d6d5d5;fill-opacity:1;fill-rule:nonzero;stroke:none"
           d="m 349.2159,576.7295 h 64.5914 v -43.336 h -64.5914 z" /><g
           transform="matrix(1,0,0,-1,349.2159,576.7295)"
           id="g70"><path
             id="path72"
             style="fill:none;stroke:#000000;stroke-width:1;stroke-linecap:butt;stroke-linejoin:miter;stroke-miterlimit:4;stroke-dasharray:none;stroke-opacity:1"
             d="M 0,0 H 64.59141 V 43.33594 H 0 Z" /></g></g></g><g
       id="g74"><g
         clip-path="url(#clipPath80)"
         id="g76"><g
           transform="translate(376,547)"
           id="g82"><text
             id="text86"
             style="font-style:italic;font-variant:normal;font-size:22px;font-family:TimesNewRomanPS;-inkscape-font-specification:TimesNewRomanPS-ItalicMT;writing-mode:lr-tb;fill:#000000;fill-opacity:1;fill-rule:nonzero;stroke:none"
             transform="scale(1,-1)"><tspan
               id="tspan84"
               y="0"
               x="0">S</tspan></text>
</g></g></g><g
       id="g88"><g
         clip-path="url(#clipPath94)"
         id="g90"><path
           id="path96"
           style="fill:#d6d5d5;fill-opacity:1;fill-rule:nonzero;stroke:none"
           d="m 282.9548,576.7295 h 64.5914 v -43.336 h -64.5914 z" /><g
           transform="matrix(1,0,0,-1,282.9548,576.7295)"
           id="g98"><path
             id="path100"
             style="fill:none;stroke:#000000;stroke-width:1;stroke-linecap:butt;stroke-linejoin:miter;stroke-miterlimit:4;stroke-dasharray:none;stroke-opacity:1"
             d="M 0,0 H 64.59141 V 43.33594 H 0 Z" /></g></g></g><g
       id="g102"><g
         clip-path="url(#clipPath108)"
         id="g104"><g
           transform="translate(310,547)"
           id="g110"><text
             id="text114"
             style="font-style:italic;font-variant:normal;font-size:22px;font-family:TimesNewRomanPS;-inkscape-font-specification:TimesNewRomanPS-ItalicMT;writing-mode:lr-tb;fill:#000000;fill-opacity:1;fill-rule:nonzero;stroke:none"
             transform="scale(1,-1)"><tspan
               id="tspan112"
               y="0"
               x="0">S</tspan></text>
</g></g></g><g
       id="g116"><g
         clip-path="url(#clipPath122)"
         id="g118"><path
           id="path124"
           style="fill:#ee220c;fill-opacity:1;fill-rule:nonzero;stroke:none"
           d="m 349.2159,622.9552 h 33.628 v -43.336 h -33.628 z" /><g
           transform="matrix(1,0,0,-1,349.2159,622.9552)"
           id="g126"><path
             id="path128"
             style="fill:none;stroke:#000000;stroke-width:1;stroke-linecap:butt;stroke-linejoin:miter;stroke-miterlimit:4;stroke-dasharray:none;stroke-opacity:1"
             d="M 0,0 H 33.62796 V 43.33594 H 0 Z" /></g></g></g><g
       id="g130"><g
         clip-path="url(#clipPath136)"
         id="g132"><g
           transform="translate(357,594)"
           id="g138"><text
             id="text142"
             style="font-style:italic;font-variant:normal;font-size:22px;font-family:TimesNewRomanPS;-inkscape-font-specification:TimesNewRomanPS-ItalicMT;writing-mode:lr-tb;fill:#000000;fill-opacity:1;fill-rule:nonzero;stroke:none"
             transform="scale(1,-1)"><tspan
               id="tspan140"
               y="0"
               x="0">W</tspan></text>
</g></g></g><g
       id="g144"><g
         clip-path="url(#clipPath150)"
         id="g146"><path
           id="path152"
           style="fill:#d6d5d5;fill-opacity:1;fill-rule:nonzero;stroke:none"
           d="m 619.3348,576.7295 h 64.5914 v -43.336 h -64.5914 z" /><g
           transform="matrix(1,0,0,-1,619.3348,576.7295)"
           id="g154"><path
             id="path156"
             style="fill:none;stroke:#000000;stroke-width:1;stroke-linecap:butt;stroke-linejoin:miter;stroke-miterlimit:4;stroke-dasharray:none;stroke-opacity:1"
             d="M 0,0 H 64.59141 V 43.33594 H 0 Z" /></g></g></g><g
       id="g158"><g
         clip-path="url(#clipPath164)"
         id="g160"><g
           transform="translate(646,547)"
           id="g166"><text
             id="text170"
             style="font-style:italic;font-variant:normal;font-size:22px;font-family:TimesNewRomanPS;-inkscape-font-specification:TimesNewRomanPS-ItalicMT;writing-mode:lr-tb;fill:#000000;fill-opacity:1;fill-rule:nonzero;stroke:none"
             transform="scale(1,-1)"><tspan
               id="tspan168"
               y="0"
               x="0">S</tspan></text>
</g></g></g><g
       id="g172"><g
         clip-path="url(#clipPath178)"
         id="g174"><path
           id="path180"
           style="fill:#d6d5d5;fill-opacity:1;fill-rule:nonzero;stroke:none"
           d="m 553.0738,576.7295 h 64.5914 v -43.336 h -64.5914 z" /><g
           transform="matrix(1,0,0,-1,553.0738,576.7295)"
           id="g182"><path
             id="path184"
             style="fill:none;stroke:#000000;stroke-width:1;stroke-linecap:butt;stroke-linejoin:miter;stroke-miterlimit:4;stroke-dasharray:none;stroke-opacity:1"
             d="M 0,0 H 64.59141 V 43.33594 H 0 Z" /></g></g></g><g
       id="g186"><g
         clip-path="url(#clipPath192)"
         id="g188"><g
           transform="translate(580,547)"
           id="g194"><text
             id="text198"
             style="font-style:italic;font-variant:normal;font-size:22px;font-family:TimesNewRomanPS;-inkscape-font-specification:TimesNewRomanPS-ItalicMT;writing-mode:lr-tb;fill:#000000;fill-opacity:1;fill-rule:nonzero;stroke:none"
             transform="scale(1,-1)"><tspan
               id="tspan196"
               y="0"
               x="0">S</tspan></text>
</g></g></g><g
       id="g200"><g
         clip-path="url(#clipPath206)"
         id="g202"><path
           id="path208"
           style="fill:#ee220c;fill-opacity:1;fill-rule:nonzero;stroke:none"
           d="m 619.3348,622.0751 h 33.628 v -43.336 h -33.628 z" /><g
           transform="matrix(1,0,0,-1,619.3348,622.0751)"
           id="g210"><path
             id="path212"
             style="fill:none;stroke:#000000;stroke-width:1;stroke-linecap:butt;stroke-linejoin:miter;stroke-miterlimit:4;stroke-dasharray:none;stroke-opacity:1"
             d="M 0,0 H 33.62796 V 43.33594 H 0 Z" /></g></g></g><g
       id="g214"><g
         clip-path="url(#clipPath220)"
         id="g216"><g
           transform="translate(627,593)"
           id="g222"><text
             id="text226"
             style="font-style:italic;font-variant:normal;font-size:22px;font-family:TimesNewRomanPS;-inkscape-font-specification:TimesNewRomanPS-ItalicMT;writing-mode:lr-tb;fill:#000000;fill-opacity:1;fill-rule:nonzero;stroke:none"
             transform="scale(1,-1)"><tspan
               id="tspan224"
               y="0"
               x="0">W</tspan></text>
</g></g></g><g
       id="g228"><g
         clip-path="url(#clipPath234)"
         id="g230"><path
           id="path236"
           style="fill:#d6d5d5;fill-opacity:1;fill-rule:nonzero;stroke:none"
           d="m 487.2754,576.7295 h 64.5914 v -43.336 h -64.5914 z" /><g
           transform="matrix(1,0,0,-1,487.2754,576.7295)"
           id="g238"><path
             id="path240"
             style="fill:none;stroke:#000000;stroke-width:1;stroke-linecap:butt;stroke-linejoin:miter;stroke-miterlimit:4;stroke-dasharray:none;stroke-opacity:1"
             d="M 0,0 H 64.59141 V 43.33594 H 0 Z" /></g></g></g><g
       id="g242"><g
         clip-path="url(#clipPath248)"
         id="g244"><g
           transform="translate(514,547)"
           id="g250"><text
             id="text254"
             style="font-style:italic;font-variant:normal;font-size:22px;font-family:TimesNewRomanPS;-inkscape-font-specification:TimesNewRomanPS-ItalicMT;writing-mode:lr-tb;fill:#000000;fill-opacity:1;fill-rule:nonzero;stroke:none"
             transform="scale(1,-1)"><tspan
               id="tspan252"
               y="0"
               x="0">S</tspan></text>
</g></g></g><g
       id="g256"><g
         clip-path="url(#clipPath262)"
         id="g258"><path
           id="path264"
           style="fill:#ee220c;fill-opacity:1;fill-rule:nonzero;stroke:none"
           d="m 553.6262,667.4207 h 74.5152 v -43.336 h -74.5152 z" /><g
           transform="matrix(1,0,0,-1,553.6262,667.4207)"
           id="g266"><path
             id="path268"
             style="fill:none;stroke:#000000;stroke-width:1;stroke-linecap:butt;stroke-linejoin:miter;stroke-miterlimit:4;stroke-dasharray:none;stroke-opacity:1"
             d="M 0,0 H 74.51521 V 43.33594 H 0 Z" /></g></g></g><g
       id="g270"><g
         clip-path="url(#clipPath276)"
         id="g272"><g
           transform="translate(582,638)"
           id="g278"><text
             id="text282"
             style="font-style:italic;font-variant:normal;font-size:22px;font-family:TimesNewRomanPS;-inkscape-font-specification:TimesNewRomanPS-ItalicMT;writing-mode:lr-tb;fill:#000000;fill-opacity:1;fill-rule:nonzero;stroke:none"
             transform="scale(1,-1)"><tspan
               id="tspan280"
               y="0"
               x="0">W</tspan></text>
</g></g></g></g></svg>