<?xml version="1.0" encoding="UTF-8" standalone="no"?>
<svg
   xmlns:dc="http://purl.org/dc/elements/1.1/"
   xmlns:cc="http://creativecommons.org/ns#"
   xmlns:rdf="http://www.w3.org/1999/02/22-rdf-syntax-ns#"
   xmlns:svg="http://www.w3.org/2000/svg"
   xmlns="http://www.w3.org/2000/svg"
   viewBox="0 0 729.89252 358.10217"
   height="358.10217"
   width="729.89252"
   xml:space="preserve"
   version="1.1"
   id="svg2"><metadata
     id="metadata8"><rdf:RDF><cc:Work
         rdf:about=""><dc:format>image/svg+xml</dc:format><dc:type
           rdf:resource="http://purl.org/dc/dcmitype/StillImage" /></cc:Work></rdf:RDF></metadata><defs
     id="defs6"><clipPath
       id="clipPath12"
       clipPathUnits="userSpaceOnUse"><path
         id="path14"
         d="M 0,0 612,0 612,360 0,360 0,0 Z" /></clipPath><clipPath
       id="clipPath22"
       clipPathUnits="userSpaceOnUse"><path
         id="path24"
         d="M 0,0 612,0 612,360 0,360 0,0 Z" /></clipPath><clipPath
       id="clipPath32"
       clipPathUnits="userSpaceOnUse"><path
         id="path34"
         d="m 59.04,73.44 522.72,0 0,227.52 -522.72,0 0,-227.52 z" /></clipPath><clipPath
       id="clipPath42"
       clipPathUnits="userSpaceOnUse"><path
         id="path44"
         d="M 0,0 612,0 612,360 0,360 0,0 Z" /></clipPath><clipPath
       id="clipPath136"
       clipPathUnits="userSpaceOnUse"><path
         id="path138"
         d="m 59.04,73.44 522.72,0 0,227.52 -522.72,0 0,-227.52 z" /></clipPath><clipPath
       id="clipPath146"
       clipPathUnits="userSpaceOnUse"><path
         id="path148"
         d="M 0,0 612,0 612,360 0,360 0,0 Z" /></clipPath></defs><g
     clip-path="url(#clipPath12)"
     transform="matrix(1.25,0,0,-1.25,0,379.1135)"
     id="g10"><g
       id="g16" /><g
       id="g18"><g
         clip-path="url(#clipPath22)"
         id="g20"><path
           id="path26"
           style="fill:#ffffff;fill-opacity:1;fill-rule:nonzero;stroke:none"
           d="M 0,0 612,0 612,360 0,360 0,0 Z" /></g></g><g
       id="g28"><g
         clip-path="url(#clipPath32)"
         id="g30"><path
           id="path36"
           style="fill:none;stroke:#000000;stroke-width:0.75;stroke-linecap:round;stroke-linejoin:round;stroke-miterlimit:10;stroke-dasharray:none;stroke-opacity:1"
           d="m 78.4,90.29 4.84,0.09 4.84,0.09 4.84,0.08 4.84,0.09 4.84,0.1 4.84,0.09 4.84,0.1 4.84,0.1 4.84,0.1 4.84,0.1 4.84,0.1 4.84,0.11 4.84,0.11 4.84,0.12 4.84,0.11 4.84,0.12 4.84,0.12 4.84,0.12 4.84,0.13 4.84,0.13 4.84,0.13 4.84,0.14 4.84,0.14 4.84,0.14 4.84,0.15 4.84,0.15 4.84,0.16 4.84,0.16 4.84,0.17 4.84,0.16 4.84,0.18 4.84,0.18 4.84,0.18 4.84,0.19 4.84,0.2 4.84,0.2 4.84,0.21 4.84,0.22 4.84,0.22 4.84,0.23 4.84,0.24 4.84,0.25 4.84,0.25 4.84,0.26 4.84,0.28 4.84,0.28 4.84,0.3 4.84,0.3 4.84,0.32 4.84,0.33 4.84,0.34 4.84,0.36 4.84,0.38 4.84,0.39 4.84,0.4 4.84,0.43 4.84,0.44 4.84,0.47 4.84,0.49 4.84,0.51 4.84,0.54 4.84,0.57 4.84,0.6 4.84,0.63 4.84,0.67 4.84,0.71 4.84,0.75 4.84,0.8 4.84,0.85 4.84,0.91 4.84,0.96 4.84,1.04 4.84,1.12 4.84,1.2 4.84,1.29 4.84,1.41 4.84,1.52 4.84,1.67 4.84,1.82 4.84,2.01 4.84,2.22 4.84,2.46 4.84,2.76 4.84,3.09 4.84,3.51 4.84,4.02 4.84,4.63 4.84,5.4 4.84,6.38 4.84,7.66 4.84,9.37 4.84,11.7 4.84,15.05 4.84,20.06 4.84,28.09 4.84,42.13 4.65,67.47" /></g></g><g
       id="g38"><g
         clip-path="url(#clipPath42)"
         id="g40"><path
           id="path46"
           style="fill:none;stroke:#000000;stroke-width:0.75;stroke-linecap:round;stroke-linejoin:round;stroke-miterlimit:10;stroke-dasharray:none;stroke-opacity:1"
           d="m 78.4,73.44 484,0" /><path
           id="path48"
           style="fill:none;stroke:#000000;stroke-width:0.75;stroke-linecap:round;stroke-linejoin:round;stroke-miterlimit:10;stroke-dasharray:none;stroke-opacity:1"
           d="m 78.4,73.44 0,-7.2" /><path
           id="path50"
           style="fill:none;stroke:#000000;stroke-width:0.75;stroke-linecap:round;stroke-linejoin:round;stroke-miterlimit:10;stroke-dasharray:none;stroke-opacity:1"
           d="m 175.2,73.44 0,-7.2" /><path
           id="path52"
           style="fill:none;stroke:#000000;stroke-width:0.75;stroke-linecap:round;stroke-linejoin:round;stroke-miterlimit:10;stroke-dasharray:none;stroke-opacity:1"
           d="m 272,73.44 0,-7.2" /><path
           id="path54"
           style="fill:none;stroke:#000000;stroke-width:0.75;stroke-linecap:round;stroke-linejoin:round;stroke-miterlimit:10;stroke-dasharray:none;stroke-opacity:1"
           d="m 368.8,73.44 0,-7.2" /><path
           id="path56"
           style="fill:none;stroke:#000000;stroke-width:0.75;stroke-linecap:round;stroke-linejoin:round;stroke-miterlimit:10;stroke-dasharray:none;stroke-opacity:1"
           d="m 465.6,73.44 0,-7.2" /><path
           id="path58"
           style="fill:none;stroke:#000000;stroke-width:0.75;stroke-linecap:round;stroke-linejoin:round;stroke-miterlimit:10;stroke-dasharray:none;stroke-opacity:1"
           d="m 562.4,73.44 0,-7.2" /><text
           id="text60"
           style="font-variant:normal;font-weight:normal;font-size:16px;font-family:Helvetica;-inkscape-font-specification:Helvetica;writing-mode:lr-tb;fill:#000000;fill-opacity:1;fill-rule:nonzero;stroke:none"
           transform="matrix(1,0,0,-1,67.28,47.52)"><tspan
             id="tspan62"
             y="0"
             x="0 8.8959999 13.344">0.0</tspan></text>
<text
           id="text64"
           style="font-variant:normal;font-weight:normal;font-size:16px;font-family:Helvetica;-inkscape-font-specification:Helvetica;writing-mode:lr-tb;fill:#000000;fill-opacity:1;fill-rule:nonzero;stroke:none"
           transform="matrix(1,0,0,-1,164.08,47.52)"><tspan
             id="tspan66"
             y="0"
             x="0 8.8959999 13.344">0.2</tspan></text>
<text
           id="text68"
           style="font-variant:normal;font-weight:normal;font-size:16px;font-family:Helvetica;-inkscape-font-specification:Helvetica;writing-mode:lr-tb;fill:#000000;fill-opacity:1;fill-rule:nonzero;stroke:none"
           transform="matrix(1,0,0,-1,260.88,47.52)"><tspan
             id="tspan70"
             y="0"
             x="0 8.8959999 13.344">0.4</tspan></text>
<text
           id="text72"
           style="font-variant:normal;font-weight:normal;font-size:16px;font-family:Helvetica;-inkscape-font-specification:Helvetica;writing-mode:lr-tb;fill:#000000;fill-opacity:1;fill-rule:nonzero;stroke:none"
           transform="matrix(1,0,0,-1,357.68,47.52)"><tspan
             id="tspan74"
             y="0"
             x="0 8.8959999 13.344">0.6</tspan></text>
<text
           id="text76"
           style="font-variant:normal;font-weight:normal;font-size:16px;font-family:Helvetica;-inkscape-font-specification:Helvetica;writing-mode:lr-tb;fill:#000000;fill-opacity:1;fill-rule:nonzero;stroke:none"
           transform="matrix(1,0,0,-1,454.48,47.52)"><tspan
             id="tspan78"
             y="0"
             x="0 8.8959999 13.344">0.8</tspan></text>
<text
           id="text80"
           style="font-variant:normal;font-weight:normal;font-size:16px;font-family:Helvetica;-inkscape-font-specification:Helvetica;writing-mode:lr-tb;fill:#000000;fill-opacity:1;fill-rule:nonzero;stroke:none"
           transform="matrix(1,0,0,-1,551.28,47.52)"><tspan
             id="tspan82"
             y="0"
             x="0 8.8959999 13.344">1.0</tspan></text>
<path
           id="path84"
           style="fill:none;stroke:#000000;stroke-width:0.75;stroke-linecap:round;stroke-linejoin:round;stroke-miterlimit:10;stroke-dasharray:none;stroke-opacity:1"
           d="m 59.04,81.87 0,210.66" /><path
           id="path86"
           style="fill:none;stroke:#000000;stroke-width:0.75;stroke-linecap:round;stroke-linejoin:round;stroke-miterlimit:10;stroke-dasharray:none;stroke-opacity:1"
           d="m 59.04,81.87 -7.2,0" /><path
           id="path88"
           style="fill:none;stroke:#000000;stroke-width:0.75;stroke-linecap:round;stroke-linejoin:round;stroke-miterlimit:10;stroke-dasharray:none;stroke-opacity:1"
           d="m 59.04,124 -7.2,0" /><path
           id="path90"
           style="fill:none;stroke:#000000;stroke-width:0.75;stroke-linecap:round;stroke-linejoin:round;stroke-miterlimit:10;stroke-dasharray:none;stroke-opacity:1"
           d="m 59.04,166.13 -7.2,0" /><path
           id="path92"
           style="fill:none;stroke:#000000;stroke-width:0.75;stroke-linecap:round;stroke-linejoin:round;stroke-miterlimit:10;stroke-dasharray:none;stroke-opacity:1"
           d="m 59.04,208.27 -7.2,0" /><path
           id="path94"
           style="fill:none;stroke:#000000;stroke-width:0.75;stroke-linecap:round;stroke-linejoin:round;stroke-miterlimit:10;stroke-dasharray:none;stroke-opacity:1"
           d="m 59.04,250.4 -7.2,0" /><path
           id="path96"
           style="fill:none;stroke:#000000;stroke-width:0.75;stroke-linecap:round;stroke-linejoin:round;stroke-miterlimit:10;stroke-dasharray:none;stroke-opacity:1"
           d="m 59.04,292.53 -7.2,0" /><text
           id="text98"
           style="font-variant:normal;font-weight:normal;font-size:16px;font-family:Helvetica;-inkscape-font-specification:Helvetica;writing-mode:lr-tb;fill:#000000;fill-opacity:1;fill-rule:nonzero;stroke:none"
           transform="matrix(0,1,1,0,41.76,77.42)"><tspan
             id="tspan100"
             y="0"
             x="0">0</tspan></text>
<text
           id="text102"
           style="font-variant:normal;font-weight:normal;font-size:16px;font-family:Helvetica;-inkscape-font-specification:Helvetica;writing-mode:lr-tb;fill:#000000;fill-opacity:1;fill-rule:nonzero;stroke:none"
           transform="matrix(0,1,1,0,41.76,119.55)"><tspan
             id="tspan104"
             y="0"
             x="0">5</tspan></text>
<text
           id="text106"
           style="font-variant:normal;font-weight:normal;font-size:16px;font-family:Helvetica;-inkscape-font-specification:Helvetica;writing-mode:lr-tb;fill:#000000;fill-opacity:1;fill-rule:nonzero;stroke:none"
           transform="matrix(0,1,1,0,41.76,157.24)"><tspan
             id="tspan108"
             y="0"
             x="0 8.8959999">10</tspan></text>
<text
           id="text110"
           style="font-variant:normal;font-weight:normal;font-size:16px;font-family:Helvetica;-inkscape-font-specification:Helvetica;writing-mode:lr-tb;fill:#000000;fill-opacity:1;fill-rule:nonzero;stroke:none"
           transform="matrix(0,1,1,0,41.76,199.37)"><tspan
             id="tspan112"
             y="0"
             x="0 8.8959999">15</tspan></text>
<text
           id="text114"
           style="font-variant:normal;font-weight:normal;font-size:16px;font-family:Helvetica;-inkscape-font-specification:Helvetica;writing-mode:lr-tb;fill:#000000;fill-opacity:1;fill-rule:nonzero;stroke:none"
           transform="matrix(0,1,1,0,41.76,241.5)"><tspan
             id="tspan116"
             y="0"
             x="0 8.8959999">20</tspan></text>
<text
           id="text118"
           style="font-variant:normal;font-weight:normal;font-size:16px;font-family:Helvetica;-inkscape-font-specification:Helvetica;writing-mode:lr-tb;fill:#000000;fill-opacity:1;fill-rule:nonzero;stroke:none"
           transform="matrix(0,1,1,0,41.76,283.64)"><tspan
             id="tspan120"
             y="0"
             x="0 8.8959999">25</tspan></text>
<path
           id="path122"
           style="fill:none;stroke:#000000;stroke-width:0.75;stroke-linecap:round;stroke-linejoin:round;stroke-miterlimit:10;stroke-dasharray:none;stroke-opacity:1"
           d="m 59.04,73.44 522.72,0 0,227.52 -522.72,0 0,-227.52" /><text
           id="text124"
           style="font-variant:normal;font-weight:normal;font-size:16px;font-family:Helvetica;-inkscape-font-specification:Helvetica;writing-mode:lr-tb;fill:#000000;fill-opacity:1;fill-rule:nonzero;stroke:none"
           transform="matrix(1,0,0,-1,285.73,18.72)"><tspan
             id="tspan126"
             y="0"
             x="0 11.552 16 19.552 23.104 26.656 34.655998 43.551998 48 51.551998 60.448002">Utilization</tspan></text>
<text
           id="text128"
           style="font-variant:normal;font-weight:normal;font-size:16px;font-family:Helvetica;-inkscape-font-specification:Helvetica;writing-mode:lr-tb;fill:#000000;fill-opacity:1;fill-rule:nonzero;stroke:none"
           transform="matrix(0,1,1,0,12.96,129.41)"><tspan
             id="tspan130"
             y="0"
             x="0 11.552 20.448 28.448 32 40.896 49.792 58.688 66.688004 75.584 80.031998 89.807999 93.360001 106.688">Residence Time</tspan></text>
</g></g><g
       id="g132"><g
         clip-path="url(#clipPath136)"
         id="g134"><path
           id="path140"
           style="fill:none;stroke:#000000;stroke-width:0.75;stroke-linecap:round;stroke-linejoin:round;stroke-miterlimit:10;stroke-dasharray:2.25, 3.75;stroke-dashoffset:0;stroke-opacity:1"
           d="m 83.24,90.29 4.84,0 4.84,0 4.84,0 4.84,0 4.84,0 4.84,0 4.84,0 4.84,0 4.84,0 4.84,0 4.84,0 4.84,0 4.84,0 4.84,0 4.84,0 4.84,0 4.84,0 4.84,0 4.84,0 4.84,0 4.84,0 4.84,0 4.84,0 4.84,0 4.84,0 4.84,0 4.84,0 4.84,0 4.84,0 4.84,0 4.84,0 4.84,0 4.84,0 4.84,0 4.84,0 4.84,0 4.84,0 4.84,0 4.84,0 4.84,0 4.84,0 4.84,0 4.84,0 4.84,0 4.84,0 4.84,0 4.84,0 4.84,0 4.84,0 4.84,0 4.84,0 4.84,0 4.84,0 4.84,0 4.84,0 4.84,0 4.84,0 4.84,0 4.84,0 4.84,0 4.84,0 4.84,0 4.84,0 4.84,0 4.84,0 4.84,0 4.84,0 4.84,0 4.84,0 4.84,0 4.84,0 4.84,0 4.84,0 4.84,0 4.84,0 4.84,0 4.84,0 4.84,0 4.84,0 4.84,0 4.84,0 4.84,0 4.84,0 4.84,0 4.84,0 4.84,0 4.84,0 4.84,0 4.84,0 4.84,0 4.84,0 4.84,0 4.84,0 4.84,0 4.84,0 4.84,0 4.84,0 4.84,0 4.84,0" /></g></g><g
       id="g142"><g
         clip-path="url(#clipPath146)"
         id="g144"><path
           id="path150"
           style="fill:none;stroke:#000000;stroke-width:0.75;stroke-linecap:round;stroke-linejoin:round;stroke-miterlimit:10;stroke-dasharray:none;stroke-opacity:1"
           d="m 78.4,73.44 484,0" /><path
           id="path152"
           style="fill:none;stroke:#000000;stroke-width:0.75;stroke-linecap:round;stroke-linejoin:round;stroke-miterlimit:10;stroke-dasharray:none;stroke-opacity:1"
           d="m 78.4,73.44 0,-7.2" /><path
           id="path154"
           style="fill:none;stroke:#000000;stroke-width:0.75;stroke-linecap:round;stroke-linejoin:round;stroke-miterlimit:10;stroke-dasharray:none;stroke-opacity:1"
           d="m 175.2,73.44 0,-7.2" /><path
           id="path156"
           style="fill:none;stroke:#000000;stroke-width:0.75;stroke-linecap:round;stroke-linejoin:round;stroke-miterlimit:10;stroke-dasharray:none;stroke-opacity:1"
           d="m 272,73.44 0,-7.2" /><path
           id="path158"
           style="fill:none;stroke:#000000;stroke-width:0.75;stroke-linecap:round;stroke-linejoin:round;stroke-miterlimit:10;stroke-dasharray:none;stroke-opacity:1"
           d="m 368.8,73.44 0,-7.2" /><path
           id="path160"
           style="fill:none;stroke:#000000;stroke-width:0.75;stroke-linecap:round;stroke-linejoin:round;stroke-miterlimit:10;stroke-dasharray:none;stroke-opacity:1"
           d="m 465.6,73.44 0,-7.2" /><path
           id="path162"
           style="fill:none;stroke:#000000;stroke-width:0.75;stroke-linecap:round;stroke-linejoin:round;stroke-miterlimit:10;stroke-dasharray:none;stroke-opacity:1"
           d="m 562.4,73.44 0,-7.2" /><text
           id="text164"
           style="font-variant:normal;font-weight:normal;font-size:16px;font-family:Helvetica;-inkscape-font-specification:Helvetica;writing-mode:lr-tb;fill:#000000;fill-opacity:1;fill-rule:nonzero;stroke:none"
           transform="matrix(1,0,0,-1,67.28,47.52)"><tspan
             id="tspan166"
             y="0"
             x="0 8.8959999 13.344">0.0</tspan></text>
<text
           id="text168"
           style="font-variant:normal;font-weight:normal;font-size:16px;font-family:Helvetica;-inkscape-font-specification:Helvetica;writing-mode:lr-tb;fill:#000000;fill-opacity:1;fill-rule:nonzero;stroke:none"
           transform="matrix(1,0,0,-1,164.08,47.52)"><tspan
             id="tspan170"
             y="0"
             x="0 8.8959999 13.344">0.2</tspan></text>
<text
           id="text172"
           style="font-variant:normal;font-weight:normal;font-size:16px;font-family:Helvetica;-inkscape-font-specification:Helvetica;writing-mode:lr-tb;fill:#000000;fill-opacity:1;fill-rule:nonzero;stroke:none"
           transform="matrix(1,0,0,-1,260.88,47.52)"><tspan
             id="tspan174"
             y="0"
             x="0 8.8959999 13.344">0.4</tspan></text>
<text
           id="text176"
           style="font-variant:normal;font-weight:normal;font-size:16px;font-family:Helvetica;-inkscape-font-specification:Helvetica;writing-mode:lr-tb;fill:#000000;fill-opacity:1;fill-rule:nonzero;stroke:none"
           transform="matrix(1,0,0,-1,357.68,47.52)"><tspan
             id="tspan178"
             y="0"
             x="0 8.8959999 13.344">0.6</tspan></text>
<text
           id="text180"
           style="font-variant:normal;font-weight:normal;font-size:16px;font-family:Helvetica;-inkscape-font-specification:Helvetica;writing-mode:lr-tb;fill:#000000;fill-opacity:1;fill-rule:nonzero;stroke:none"
           transform="matrix(1,0,0,-1,454.48,47.52)"><tspan
             id="tspan182"
             y="0"
             x="0 8.8959999 13.344">0.8</tspan></text>
<text
           id="text184"
           style="font-variant:normal;font-weight:normal;font-size:16px;font-family:Helvetica;-inkscape-font-specification:Helvetica;writing-mode:lr-tb;fill:#000000;fill-opacity:1;fill-rule:nonzero;stroke:none"
           transform="matrix(1,0,0,-1,551.28,47.52)"><tspan
             id="tspan186"
             y="0"
             x="0 8.8959999 13.344">1.0</tspan></text>
<path
           id="path188"
           style="fill:none;stroke:#000000;stroke-width:0.75;stroke-linecap:round;stroke-linejoin:round;stroke-miterlimit:10;stroke-dasharray:none;stroke-opacity:1"
           d="m 59.04,81.87 0,210.66" /><path
           id="path190"
           style="fill:none;stroke:#000000;stroke-width:0.75;stroke-linecap:round;stroke-linejoin:round;stroke-miterlimit:10;stroke-dasharray:none;stroke-opacity:1"
           d="m 59.04,81.87 -7.2,0" /><path
           id="path192"
           style="fill:none;stroke:#000000;stroke-width:0.75;stroke-linecap:round;stroke-linejoin:round;stroke-miterlimit:10;stroke-dasharray:none;stroke-opacity:1"
           d="m 59.04,124 -7.2,0" /><path
           id="path194"
           style="fill:none;stroke:#000000;stroke-width:0.75;stroke-linecap:round;stroke-linejoin:round;stroke-miterlimit:10;stroke-dasharray:none;stroke-opacity:1"
           d="m 59.04,166.13 -7.2,0" /><path
           id="path196"
           style="fill:none;stroke:#000000;stroke-width:0.75;stroke-linecap:round;stroke-linejoin:round;stroke-miterlimit:10;stroke-dasharray:none;stroke-opacity:1"
           d="m 59.04,208.27 -7.2,0" /><path
           id="path198"
           style="fill:none;stroke:#000000;stroke-width:0.75;stroke-linecap:round;stroke-linejoin:round;stroke-miterlimit:10;stroke-dasharray:none;stroke-opacity:1"
           d="m 59.04,250.4 -7.2,0" /><path
           id="path200"
           style="fill:none;stroke:#000000;stroke-width:0.75;stroke-linecap:round;stroke-linejoin:round;stroke-miterlimit:10;stroke-dasharray:none;stroke-opacity:1"
           d="m 59.04,292.53 -7.2,0" /><text
           id="text202"
           style="font-variant:normal;font-weight:normal;font-size:16px;font-family:Helvetica;-inkscape-font-specification:Helvetica;writing-mode:lr-tb;fill:#000000;fill-opacity:1;fill-rule:nonzero;stroke:none"
           transform="matrix(0,1,1,0,41.76,77.42)"><tspan
             id="tspan204"
             y="0"
             x="0">0</tspan></text>
<text
           id="text206"
           style="font-variant:normal;font-weight:normal;font-size:16px;font-family:Helvetica;-inkscape-font-specification:Helvetica;writing-mode:lr-tb;fill:#000000;fill-opacity:1;fill-rule:nonzero;stroke:none"
           transform="matrix(0,1,1,0,41.76,119.55)"><tspan
             id="tspan208"
             y="0"
             x="0">5</tspan></text>
<text
           id="text210"
           style="font-variant:normal;font-weight:normal;font-size:16px;font-family:Helvetica;-inkscape-font-specification:Helvetica;writing-mode:lr-tb;fill:#000000;fill-opacity:1;fill-rule:nonzero;stroke:none"
           transform="matrix(0,1,1,0,41.76,157.24)"><tspan
             id="tspan212"
             y="0"
             x="0 8.8959999">10</tspan></text>
<text
           id="text214"
           style="font-variant:normal;font-weight:normal;font-size:16px;font-family:Helvetica;-inkscape-font-specification:Helvetica;writing-mode:lr-tb;fill:#000000;fill-opacity:1;fill-rule:nonzero;stroke:none"
           transform="matrix(0,1,1,0,41.76,199.37)"><tspan
             id="tspan216"
             y="0"
             x="0 8.8959999">15</tspan></text>
<text
           id="text218"
           style="font-variant:normal;font-weight:normal;font-size:16px;font-family:Helvetica;-inkscape-font-specification:Helvetica;writing-mode:lr-tb;fill:#000000;fill-opacity:1;fill-rule:nonzero;stroke:none"
           transform="matrix(0,1,1,0,41.76,241.5)"><tspan
             id="tspan220"
             y="0"
             x="0 8.8959999">20</tspan></text>
<text
           id="text222"
           style="font-variant:normal;font-weight:normal;font-size:16px;font-family:Helvetica;-inkscape-font-specification:Helvetica;writing-mode:lr-tb;fill:#000000;fill-opacity:1;fill-rule:nonzero;stroke:none"
           transform="matrix(0,1,1,0,41.76,283.64)"><tspan
             id="tspan224"
             y="0"
             x="0 8.8959999">25</tspan></text>
<path
           id="path226"
           style="fill:none;stroke:#000000;stroke-width:0.75;stroke-linecap:round;stroke-linejoin:round;stroke-miterlimit:10;stroke-dasharray:none;stroke-opacity:1"
           d="m 59.04,73.44 522.72,0 0,227.52 -522.72,0 0,-227.52" /></g></g></g></svg>