<?xml version="1.0" encoding="UTF-8" standalone="no"?>
<svg
   xmlns:dc="http://purl.org/dc/elements/1.1/"
   xmlns:cc="http://creativecommons.org/ns#"
   xmlns:rdf="http://www.w3.org/1999/02/22-rdf-syntax-ns#"
   xmlns:svg="http://www.w3.org/2000/svg"
   xmlns="http://www.w3.org/2000/svg"
   viewBox="0 0 961.55853 273.24121"
   height="273.24121"
   width="961.55853"
   xml:space="preserve"
   id="svg2"
   version="1.1"><metadata
     id="metadata8"><rdf:RDF><cc:Work
         rdf:about=""><dc:format>image/svg+xml</dc:format><dc:type
           rdf:resource="http://purl.org/dc/dcmitype/StillImage" /></cc:Work></rdf:RDF></metadata><defs
     id="defs6"><clipPath
       id="clipPath14"
       clipPathUnits="userSpaceOnUse"><path
         id="path12"
         d="M 0,0 H 1024 V 768 H 0 Z" /></clipPath><clipPath
       id="clipPath24"
       clipPathUnits="userSpaceOnUse"><path
         id="path22"
         d="M 0,0 H 1024 V 768 H 0 Z" /></clipPath></defs><g
     clip-path="url(#clipPath14)"
     transform="matrix(1.3333333,0,0,-1.3333333,-204.38893,683.14213)"
     id="g10"><g
       id="g16" /><g
       id="g18"><g
         clip-path="url(#clipPath24)"
         id="g20"><path
           id="path26"
           style="fill:#ffffff;fill-opacity:1;fill-rule:nonzero;stroke:none"
           d="M 0,768 H 1024 V 0 H 0 Z" /><path
           id="path28"
           style="fill:#929292;fill-opacity:1;fill-rule:nonzero;stroke:none"
           d="m 208,433.6464 v -100 h 100 z" /><g
           transform="matrix(1,0,0,-1,208,433.6464)"
           id="g30"><path
             id="path32"
             style="fill:none;stroke:#000000;stroke-width:1;stroke-linecap:butt;stroke-linejoin:miter;stroke-miterlimit:4;stroke-dasharray:none;stroke-opacity:1"
             d="M 0,0 V 100 H 100 Z" /></g><g
           transform="matrix(1,0,0,-1,167.1186,324)"
           id="g34"><path
             id="path36"
             style="fill:none;stroke:#000000;stroke-width:2;stroke-linecap:butt;stroke-linejoin:miter;stroke-miterlimit:4;stroke-dasharray:none;stroke-opacity:1"
             d="m 0,0 h 680.1628 1" /></g><path
           id="path38"
           style="fill:#000000;fill-opacity:1;fill-rule:nonzero;stroke:none"
           d="m 847.2814,319.2 9.6,4.8 -9.6,4.8 z" /><path
           id="path40"
           style="fill:#ee220c;fill-opacity:1;fill-rule:nonzero;stroke:none"
           d="m 247.4375,495.2188 v -101 L 308,333.6562 h 1 v 100 z" /><g
           transform="matrix(1,0,0,-1,247.4375,495.2188)"
           id="g42"><path
             id="path44"
             style="fill:none;stroke:#000000;stroke-width:1;stroke-linecap:butt;stroke-linejoin:miter;stroke-miterlimit:4;stroke-dasharray:none;stroke-opacity:1"
             d="m 0,0 v 101 l 60.5625,60.5625 h 1 v -100 z" /></g><path
           id="path46"
           style="fill:#929292;fill-opacity:1;fill-rule:nonzero;stroke:none"
           d="m 308.1366,433.6464 v -100 h 100 z" /><g
           transform="matrix(1,0,0,-1,308.1366,433.6464)"
           id="g48"><path
             id="path50"
             style="fill:none;stroke:#000000;stroke-width:1;stroke-linecap:butt;stroke-linejoin:miter;stroke-miterlimit:4;stroke-dasharray:none;stroke-opacity:1"
             d="M 0,0 V 100 H 100 Z" /></g><g
           transform="matrix(0,1,1,0,248.4736,334.1611)"
           id="g52"><path
             id="path54"
             style="fill:none;stroke:#000000;stroke-width:2;stroke-linecap:butt;stroke-linejoin:miter;stroke-miterlimit:4;stroke-dasharray:none;stroke-opacity:1"
             d="m 0,0 h 154.8029 1" /></g><path
           id="path56"
           style="fill:#000000;fill-opacity:1;fill-rule:nonzero;stroke:none"
           d="m 253.2736,488.9641 -4.8,9.6 -4.8,-9.6 z" /><g
           transform="matrix(1,0,0,-1,247.5089,333.4827)"
           id="g58"><path
             id="path60"
             style="fill:none;stroke:#000000;stroke-width:2;stroke-linecap:butt;stroke-linejoin:miter;stroke-miterlimit:4;stroke-dasharray:none;stroke-opacity:1"
             d="m 0,0 h 152.5247 1" /></g><path
           id="path62"
           style="fill:#000000;fill-opacity:1;fill-rule:nonzero;stroke:none"
           d="m 400.0336,328.6827 9.6,4.8 -9.6,4.8 z" /></g></g></g></svg>