<?xml version="1.0" encoding="UTF-8" standalone="no"?>
<svg
   xmlns:dc="http://purl.org/dc/elements/1.1/"
   xmlns:cc="http://creativecommons.org/ns#"
   xmlns:rdf="http://www.w3.org/1999/02/22-rdf-syntax-ns#"
   xmlns:svg="http://www.w3.org/2000/svg"
   xmlns="http://www.w3.org/2000/svg"
   viewBox="0 0 805.87726 153.433"
   height="153.433"
   width="805.87726"
   xml:space="preserve"
   version="1.1"
   id="svg2"><metadata
     id="metadata8"><rdf:RDF><cc:Work
         rdf:about=""><dc:format>image/svg+xml</dc:format><dc:type
           rdf:resource="http://purl.org/dc/dcmitype/StillImage" /></cc:Work></rdf:RDF></metadata><defs
     id="defs6"><clipPath
       id="clipPath12"
       clipPathUnits="userSpaceOnUse"><path
         id="path14"
         d="m 0,0 1024,0 0,768 L 0,768 0,0 Z" /></clipPath><clipPath
       id="clipPath22"
       clipPathUnits="userSpaceOnUse"><path
         id="path24"
         d="m 0,0 1024,0 0,768 L 0,768 0,0 Z" /></clipPath><clipPath
       id="clipPath32"
       clipPathUnits="userSpaceOnUse"><path
         id="path34"
         d="m 462,334 311.0975,0 0,100 C 766.8416,418.1367 757.55,403.6467 745.7438,391.3424 735.8773,381.0598 724.4028,372.463 711.8456,365.7271 673.3526,345.0788 628.6557,343.2163 585.1255,341.1761 544.0941,339.253 503.0502,336.8616 462,334 Z" /></clipPath><clipPath
       id="clipPath38"
       clipPathUnits="userSpaceOnUse"><path
         id="path40"
         d="m 0,0 1024,0 0,768 L 0,768 0,0 Z" /></clipPath><linearGradient
       id="linearGradient44"
       spreadMethod="pad"
       gradientTransform="matrix(3.130975,0,0,-1.02,461,384)"
       gradientUnits="userSpaceOnUse"
       y2="0"
       x2="100"
       y1="0"
       x1="0"><stop
         id="stop46"
         offset="0"
         style="stop-opacity:1;stop-color:#ffffff" /><stop
         id="stop48"
         offset="1"
         style="stop-opacity:1;stop-color:#ee220c" /></linearGradient><clipPath
       id="clipPath56"
       clipPathUnits="userSpaceOnUse"><path
         id="path58"
         d="m 0,0 1024,0 0,768 L 0,768 0,0 Z" /></clipPath></defs><g
     clip-path="url(#clipPath12)"
     transform="matrix(1.25,0,0,-1.25,-365.88675,559.5605)"
     id="g10"><g
       id="g16" /><g
       id="g18"><g
         clip-path="url(#clipPath22)"
         id="g20"><path
           id="path26"
           style="fill:#ffffff;fill-opacity:1;fill-rule:nonzero;stroke:none"
           d="m 0,0 1024,0 0,768 L 0,768 0,0 Z" /></g></g><g
       id="g28"><g
         clip-path="url(#clipPath32)"
         id="g30"><g
           clip-path="url(#clipPath38)"
           id="g36"><g
             id="g42"><path
               id="path50"
               style="fill:url(#linearGradient44);stroke:none"
               d="m 0,0 1024,0 0,768 L 0,768 0,0 Z" /></g></g></g></g><g
       id="g52"><g
         clip-path="url(#clipPath56)"
         id="g54"><g
           transform="matrix(0,1,1,0,462,334)"
           id="g60"><path
             id="path62"
             style="fill:none;stroke:#000000;stroke-width:2;stroke-linecap:butt;stroke-linejoin:miter;stroke-miterlimit:4;stroke-dasharray:none;stroke-opacity:1"
             d="m 0,0 0,311.0975 100,0 C 84.13667,304.8416 69.64665,295.55 57.3424,283.7438 47.05979,273.8773 38.46296,262.4028 31.72708,249.8456 11.07881,211.3526 9.21633,166.6557 7.176099,123.1255 5.252978,82.09405 2.86158,41.05019 0,0 Z" /></g></g></g></g></svg>